<svg xmlns="http://www.w3.org/2000/svg"><defs><font id="iconfont" horiz-adv-x="1024"><font-face units-per-em="1024" ascent="896" descent="-128"/><glyph horiz-adv-x="0"/><glyph unicode="x" glyph-name="x" horiz-adv-x="1001" d="M281 543q-27-1-53-1h-83q-18 0-36.5-6T76 517.5t-23-32-9-45.5v-76h912v41q0 16-.5 30t-.5 18q0 13-5 29t-17 29.5-31.5 22.5-49.5 9H719v-97H281v97zm674-233v-52q0-23 .5-52t.5-58-10.5-47.5-26-30-33-16T855 50q-14-1-29.5-.5T796 50h-32l-45 128H280L236 50h-63q-20 0-45 1-25 0-41 9.5t-25.5 23T48 113t-4 30v167h911zm-792-63q-12 0-21-8.5t-9-21.5 9-21.5 21-8.5q13 0 22 8.5t9 21.5-9 21.5-22 8.5zm153-124q-8-26-14-48-5-19-10.5-37T284 13t-3-15 1-14.5 9.5-10.5 21.5-4h365q23 0 34 12t2 38q-5 13-9.5 30.5T695 84q-5 19-11 39H316zm20 375v228q0 11 2.5 23t10 21.5T369 786t34 6h188q31 0 51.5-14.5T663 725V498H336z"/><glyph unicode="" glyph-name="coding" horiz-adv-x="1362" d="M429.695 304.355c0-13.57 9.162-24.573 20.463-24.573 11.303 0 20.463 11.003 20.463 24.573s-9.162 24.573-20.463 24.573c-11.303 0-20.463-11.003-20.463-24.573zm486.039 0c0-13.57 9.162-24.573 20.463-24.573 11.303 0 20.463 11.003 20.463 24.573s-9.162 24.573-20.463 24.573c-11.303 0-20.463-11.003-20.463-24.573zm315.08 157.839c-33.568 0-62.989-21.285-79.433-53.227-55.958 121.346-172.373 233.772-316.244 280.067-77.631 30.974-132.144 90.426-138.883 159.907-6.738-69.482-61.252-128.932-138.883-159.907C413.5 642.736 297.084 530.316 241.127 408.967c-16.445 31.941-45.865 53.227-79.433 53.227-51.553 0-93.344-50.179-93.344-112.089 0-61.903 41.79-112.089 93.344-112.089 15.679 0 30.445 4.661 43.418 12.868 4.439-201.002 222.515-331.478 491.15-331.829 268.627.348 486.71 130.821 491.15 331.829 12.974-8.206 27.743-12.868 43.418-12.868 51.553 0 93.344 50.179 93.344 112.089-.007 61.903-41.806 112.089-93.354 112.089zM204.12 315.074c-4.367-16.138-23.805-23.009-43.418-15.36s-31.973 26.935-27.604 43.073c4.367 16.138 23.805 23.009 43.418 15.36s31.973-26.941 27.604-43.073zM696.249-24.991C480.793-24.657 306.31 76.887 306.31 222.251c0 3.044.112 6.061.257 9.073.05.99.101 1.982.169 2.973.133 2.054.318 4.097.523 6.14.274 2.736.598 5.462.996 8.174.039.269.071.539.112.804 4.337 28.569 15.442 72.165 32.211 97.297 40.291 58.279 112.157 97.104 194.14 97.104 63.116 0 120.193-23.051 161.532-60.223 41.338 37.173 98.413 60.223 161.532 60.223 81.987 0 153.851-38.831 194.14-97.104 16.771-25.126 27.876-68.725 32.211-97.297.039-.269.071-.539.112-.804.402-2.711.723-5.441.996-8.174.202-2.043.385-4.08.523-6.14.067-.99.117-1.982.169-2.973.147-3.01.257-6.028.257-9.073 0-145.36-174.485-246.899-389.939-247.242zm535.546 324.708c-19.613-7.65-39.054-.779-43.418 15.36s7.994 35.42 27.604 43.073c19.613 7.65 39.054.779 43.418-15.36 4.367-16.138-7.994-35.42-27.604-43.073z"/><glyph unicode="" glyph-name="google" d="M646.217 862.347h-251.04c-33.283 0-68.977-3.872-107.068-11.628-38.453-9.038-75.542-28.197-111.21-57.553-52.016-50.235-77.983-106.115-77.983-167.799 0-50.993 18.358-95.677 55.07-134.096 35.048-41.205 85.97-62.24 152.822-63.064 12.593 0 26.074.824 40.316 2.441-2.336-6.597-4.915-13.717-7.676-21.548-3.137-7.349-4.687-16.644-4.687-27.723 0-18.424 4.1-34.248 12.363-47.379 7.087-13.547 15.146-26.253 24.201-38.175-29.298-.809-66.076-4.498-110.407-10.992-44.758-7.741-87.474-23.27-128.088-46.455-36.224-21.59-61.243-46.659-75.018-75.148-14.308-28.524-21.395-54.451-21.395-77.649 0-47.671 21.917-88.607 65.637-122.871 43.376-36.622 109.013-55.38 196.951-56.195 105.034 1.65 185.451 26.719 241.094 75.312C593.812 28.836 620.71 82.69 620.71 143.532c-.833 42.836-10.615 77.517-29.397 104.08-19.94 26.138-43.147 49.924-69.596 71.622l-42.602 34.894c-6.149 6.115-12.493 13.268-18.993 21.45-7.676 8.556-11.513 19.337-11.513 32.475 0 13.473 3.748 25.282 11.219 35.489 6.353 9.814 13.245 18.593 20.75 26.343a1286.12 1286.12 0 0 1 36.999 33.666c10.467 11.026 20.381 23.068 29.707 36.126 19.107 26.964 29.037 62.885 29.756 107.78 0 24.498-2.745 45.948-8.265 64.297-6.727 18.404-14.42 34.288-23.11 47.76-9.064 14.25-18.315 26.345-27.763 36.144-9.847 9.398-18.684 16.527-26.595 21.418h77.386l77.525 45.272zm-137.594-684.61c20.759-23.663 31.145-51.397 31.145-83.274 0-39.212-15.18-71.238-45.589-96.177-31.13-25.306-76.317-38.37-135.478-39.212-65.963.842-117.889 15.538-155.903 44.11-39.971 28.573-59.896 64.912-59.896 109.015 0 22.439 4.541 41.636 13.777 57.576 7.969 15.123 17.751 27.772 29.356 37.971 12.02 9.799 23.804 17.361 35.407 22.66 11.57 4.9 20.536 8.591 26.93 11.048 27.192 8.173 53.805 14.077 79.763 17.768 26.377 2.434 42.781 3.218 49.166 2.434 10.786 0 20.162-.384 28.189-1.209 46.774-32.702 81.128-60.261 103.134-82.71zm-40.762 369.411c-3.024-16.78-9.848-33.135-20.497-49.076-22.023-22.504-49.55-34.401-82.605-35.634-26.163 0-49.402 7.969-69.737 23.966-20.39 15.949-36.933 35.374-49.826 58.256-26.581 49.125-39.817 96.324-39.817 141.716-.873 34.369 8.231 65.456 27.249 93.279 22.571 26.579 50.84 40.289 84.866 41.113 25.699-.824 48.44-8.419 68.251-22.685 19.369-15.121 34.989-34.785 46.888-58.899 25.314-50.284 37.979-100.22 37.979-149.685 0-11.491-.94-25.554-2.752-42.35zm386.747 178.087v131.747h-63.823V725.235H659.087v-63.823h131.698V529.714h63.823v131.698h131.713v63.823z"/><glyph unicode="" glyph-name="tencent-weibo" d="M875.231 367.711C808.174 172.256 593.148 67.287 395.834 134.05c-26.913 9.101-53.18 21.335-77.254 35.917-15.854 9.845-20.258 30.26-10.98 45.82 10.1 15.775 30.514 20.727 46.172 10.961 19.827-12.174 41.338-22.176 63.67-29.731 162.298-54.922 339.08 31.434 394.236 192.205 55.195 160.83-31.728 336.32-194.026 391.241-161.906 54.785-338.864-31.453-394.041-192.245-16.03-46.701-20.708-95.261-13.427-143.958 2.975-18.222-9.669-35.172-28.439-37.599-18.477-2.956-35.192 9.532-37.972 27.813-8.808 58.405-2.877 119.198 16.324 175.157 67.193 195.768 282.162 300.775 479.3 234.071 197.294-66.783 303.026-280.283 235.833-475.991zm-478.399 104.01c-4.365 15.971-1.997 33.547 2.525 50.713 17.557 66.45 86.512 106.124 153.843 89.018 67.702-17.224 107.787-84.672 90.25-151.083-17.616-66.763-86.042-106.633-153.744-89.428-25.993 6.616-47.797 20.786-64.14 39.44-29.516-18.438-116.438-64.219-179.698-135.679C170.552 156.384 175.425-34.94 175.425-34.94c-5.422-43.746-22.978-42.218-37.952-40.907-10.569.92-20.493 5.852-22.607 20.356-6.89 39.244-6.654 258.636 96.455 381.573 45.84 55.156 145.465 114.971 185.512 145.642z"/><glyph unicode="" glyph-name="qzone" d="M1019.461 499.46c-1.993 6.035-7.329 10.334-13.679 10.869L661.201 539.91 526.507 858.53c-2.496 5.846-8.172 9.654-14.526 9.654-6.355 0-12.094-3.833-14.571-9.679L362.785 539.91l-344.6-29.581c-6.312-.534-11.716-4.834-13.685-10.869-1.922-6.053-.106-12.686 4.683-16.833l261.413-226.475-78.373-336.893c-1.422-6.166.992-12.666 6.073-16.393 5.172-3.704 12.031-3.98 17.517-.679L511.981 80.782 808.083-97.851c2.566-1.546 5.381-2.331 8.261-2.331 3.201 0 6.48.994 9.279 2.985 5.123 3.814 7.536 10.29 6.076 16.456l-61.985 266.392c26.533 13.387 55.864 35.98 55.864 35.98s-116.009-56.649-532.424-28.991l301.843 218.724s-11.88 18.444-390.115 31.637c-25.22.91 308.411 63.26 554.855 10.567L456.684 236.181s121.561-18.066 305.086-15.967l-8.388 35.919 261.439 226.494c4.809 4.148 6.629 10.78 4.639 16.833zm0 0"/><glyph unicode="" glyph-name="skype" d="M758.812 282.181q0 30.475-11.886 55.767t-29.559 41.749-44.493 29.866-50.283 20.722-53.329 14.018l-63.387 14.627q-18.285 4.267-26.817 6.4t-21.332 7.009-18.285 9.751-10.057 12.8-4.571 18.284q0 46.931 87.765 46.931 26.208 0 46.93-7.314t32.913-17.371 23.159-20.417 24.38-17.675 29.255-7.315q28.645 0 46.016 19.504t17.371 46.93q0 33.522-34.131 60.644t-86.547 41.14-110.926 14.018q-41.445 0-80.452-9.447t-72.833-28.645-54.244-53.025-20.418-78.319q0-37.179 11.581-64.911t34.131-46.016 48.757-29.559 62.778-19.808l88.986-21.941q54.853-13.409 68.261-21.941 19.504-12.19 19.504-36.57 0-23.77-24.38-39.312t-63.996-15.541q-31.083 0-55.767 9.751T423.29 240.43t-27.732 27.427-28.036 23.466-32.912 9.751q-30.475 0-46.016-18.285t-15.541-45.711q0-56.073 74.356-95.994t177.36-39.922q44.493 0 85.328 11.276t74.661 32.608 53.94 56.987 20.113 80.147zm221.241-132.258q0-96.909-68.567-165.475T746.011-84.119q-79.232 0-142.619 48.759-46.931-9.753-91.424-9.753-87.155 0-166.693 33.827T208.141 80.136t-91.423 137.135-33.826 166.693q0 44.493 9.751 91.423-48.758 63.387-48.758 142.62 0 96.908 68.566 165.475t165.475 68.566q79.233 0 142.62-48.758 46.93 9.751 91.423 9.751 87.156 0 166.694-33.826t137.134-91.423 91.423-137.134 33.826-166.694q0-44.492-9.751-91.423 48.757-63.386 48.757-142.619z"/><glyph unicode="" glyph-name="juejin" horiz-adv-x="1272" d="M736.872 778.494L628.425 864l-119.172-94.08 119.172-95.007 119.57 95.007-11.123 8.574zm410.979-331.631L628.127 37.042 108.734 446.631 32 384.992 628.127-85.044l596.458 470.301-76.734 61.606zm-519.724-33.235L345.291 636.58l-76.701-61.572L628.093 291.51l359.868 283.763-76.701 61.606-283.134-223.25z"/><glyph unicode="" glyph-name="stackoverflow" d="M781.539 10.621v256.284h85.059V-74.44H98.85v341.345h85.059V10.621zM277.81 291.207l417.567-87.268 17.675 83.955-417.567 87.268-17.675-83.955zm55.233 198.841l386.636-180.061 35.349 77.327-386.636 181.167-35.349-78.432zm107.153 190.004l328.087-272.854 54.129 65.175-328.087 272.854-54.129-65.175zm212.097 202.155l-68.49-50.814 254.075-342.448 68.49 50.814-254.075 342.448zM268.972 96.785h426.404v85.059H268.972V96.785z"/><glyph unicode="" glyph-name="menu" d="M102.4 691.2h819.2V640H102.4zm0-256h819.2V384H102.4zm0-256h819.2V128H102.4z"/><glyph unicode="" glyph-name="68design" d="M820.436 730.897L384.553 478.266l-.754-370.274-180.235 113.873.754 364.242 463.786 301.649L59.527 656.994V143.436l450.966-263.943 453.982 263.943v513.558l-144.038 73.904zm17.345-528.641L512 19.004v400.439l326.535 186.268-.754-403.456z"/><glyph unicode="" glyph-name="map-marker" d="M867.387 465.302c-2.317-58.64-15.44-114.507-37.314-168.353C784.718 185.304 717.059 89.62 624.225 12.247 617.331 6.501 610.09 1.123 602.729-4.02c-68.279-47.695-110.065-50.234-175.567.49C284.179 107.197 190.385 249.793 165.95 431.512c-23.643 175.824 107.312 346.127 286.187 377.46 189.297 33.156 367.569-86.99 406.679-274.717 4.707-22.599 5.801-45.953 8.572-68.954zM517.642 600.158c-73.485 1.747-135.545-55.935-137.781-128.065-2.322-74.804 57.015-137.178 132.016-138.772 72.967-1.553 135.698 56.961 137.764 128.515 2.183 75.348-56.197 136.522-131.998 138.322z"/><glyph unicode="" glyph-name="folder" d="M422.4 741.4h-268c-49.4 0-88.9-40-88.9-89.3L65 116c0-49.4 40-89.4 89.4-89.4h714.8c49.4 0 89.3 40 89.3 89.4v446.7c0 49.4-40 89.3-89.3 89.3H511.8l-89.4 89.4z"/><glyph unicode="" glyph-name="users" d="M768 358.4c76.8 0 140.8 64 140.8 140.8S844.8 640 768 640c-19.2 0-19.2-25.6 0-25.6 64 0 115.2-51.2 115.2-115.2S832 384 768 384c-19.2 6.4-19.2-25.6 0-25.6zm217.6-211.2C998.4 275.2 896 384 768 390.4c-19.2 0-19.2-25.6 0-25.6 115.2 0 198.4-102.4 185.6-217.6 0-19.2 25.6-19.2 32 0zM691.2 550.4c0-89.6-70.4-166.4-160-172.8-89.6 0-172.8 64-179.2 153.6-12.8 89.6 44.8 172.8 134.4 192s172.8-38.4 198.4-128c0-12.8 6.4-25.6 6.4-44.8 0-32 44.8-32 44.8 0 0 89.6-57.6 172.8-140.8 204.8s-185.6 0-243.2-64c-57.6-70.4-64-172.8-19.2-249.6s140.8-115.2 230.4-102.4C665.6 358.4 736 454.4 736 550.4c0 32-44.8 32-44.8 0zM838.4 19.2C864 204.8 716.8 377.6 524.8 384 339.2 390.4 185.6 230.4 192 44.8V19.2c6.4-32 51.2-32 44.8 0-12.8 83.2 12.8 166.4 70.4 224 51.2 57.6 128 89.6 204.8 89.6s153.6-32 204.8-89.6c57.6-64 76.8-147.2 70.4-224 0-32 51.2-32 51.2 0zM256 390.4c-64 0-115.2 51.2-115.2 115.2S192 620.8 256 620.8c19.2 0 19.2 25.6 0 25.6-76.8 0-140.8-64-140.8-140.8s64-140.8 140.8-140.8c19.2-6.4 19.2 25.6 0 25.6zM70.4 147.2C57.6 256 140.8 358.4 256 358.4c19.2 0 19.2 25.6 0 25.6-128 0-230.4-115.2-211.2-243.2 0-12.8 25.6-12.8 25.6 6.4z"/><glyph unicode="" glyph-name="zcool" d="M955.164 436.505c-27.627-15.31-67.116-22.917-100.08-26.682 52.288 44.437 103.046 95.07 123.573 158.766C1006.5 655 1007.344 735.102 981.3 820.656a20.3 20.3 0 0 1-16.285 14.132c-7.765 1.349-15.386-2.04-19.861-8.376-69.076-98.382-160.421-161.131-260.25-179.68 29.838 60.029 62.747 127.788 55.648 198.62a20.272 20.272 0 0 1-13.499 17.125c-7.424 2.598-15.727.697-21.264-4.935-105.832-107.774-190.312-130.52-292.334-132.272-112.645-1.941-220.221-53.877-295.101-142.514-74.27-87.872-107.145-201.213-90.195-310.969C55.39 95.185 187.177-36.984 363.918-64.912c22.305-3.522 44.415-5.245 66.181-5.245 145.16 0 275.42 76.772 349.852 210.147 8.483 15.171 22.414 30.062 38.214 40.891 71.861 49.169 123.843 112.807 154.453 189.206 4.224 10.559 7.334 23.564 10.048 35.041l2.104 8.654c1.995 7.846-.898 16.142-7.334 21.066s-15.189 5.552-22.271 1.656zM69.878 301.797c17.057-53.635 121.901-71.591 121.901-71.591-87.517-94.028-121.901 71.591-121.901 71.591zm253.185-71.592s213.966 24.738 299.217 98.454c0 0-124.166-283.13-299.217-98.454z"/><glyph unicode="" glyph-name="book-shelf" d="M745.197 156.43c4.717-17.677 22.891-28.154 40.535-23.421s28.138 22.891 23.404 40.552L676.342 669.169c-4.717 17.661-22.891 28.138-40.535 23.421-17.644-4.734-28.138-22.891-23.404-40.552L745.197 156.43zm-199.945-33.302c18.273 0 33.103 14.83 33.103 33.103v397.241c0 18.273-14.83 33.103-33.103 33.103s-33.103-14.83-33.103-33.103V156.231c0-18.257 14.814-33.103 33.103-33.103zM942.494 238.99c-18.273 0-33.103-14.814-33.103-33.103V72.546c-4.469-31.382-18.207-44.607-52.353-48.728H177.259c-42.72 2.913-58.113 16.452-62.367 53.429v128.64c0 18.29-14.83 33.103-33.103 33.103s-33.103-14.814-33.103-33.103V42.77c0-46.196 38.45-85.159 84.662-85.159l763.564.033c43.415 0 78.604 21.468 78.604 64.883v41.727h.083v141.633c0 18.306-14.83 33.103-33.103 33.103zM280.425 123.128c18.273 0 33.103 14.83 33.103 33.103v612.414c0 18.273-14.83 33.103-33.103 33.103s-33.103-14.83-33.103-33.103V156.231c0-18.257 14.814-33.103 33.103-33.103zm132.414 0c18.273 0 33.103 14.83 33.103 33.103v513.103c0 18.273-14.83 33.103-33.103 33.103s-33.103-14.83-33.103-33.103V156.231c0-18.257 14.814-33.103 33.103-33.103z"/><glyph unicode="" glyph-name="hourglass" d="M454.372 397.824a30.41 30.41 0 0 1-10.658 4.794l-.208.041C314.88 433.55 224.939 543.402 224.939 669.809V779.32h578.332V669.809c0-126.407-89.884-236.26-218.567-267.15-13.655-3.065-23.706-15.086-23.706-29.454 0-.545.014-1.087.043-1.625l-.003.075 1.138-6.827h.171l-.171.683.171-.626v-.057l.512-2.276.341.171 1.308-2.844a35.844 35.844 0 0 1 2.569-3.902l-.065.09c.341-.569.91-1.024 1.365-1.536l1.593-1.764a31.458 31.458 0 0 1 10.593-6.754l.215-.073-.569-8.647 2.788 7.851C713.443 313.855 803.271 204.06 803.271 77.596v-88.917H224.939v88.917c0 125.724 89.202 235.406 216.974 266.752 4.1.827 7.741 2.288 11.012 4.293l-.146-.083 3.129 1.991c-.228 0 .569.569 1.308 1.195l4.949 5.689.683 1.024 1.024 1.82c.119.224.232.41.355.589l-.013-.02.341.796c1.687 3.551 2.672 7.716 2.672 12.111 0 9.198-4.314 17.388-11.029 22.658l-.062.047M966.542-41.244c-.378 16.611-13.933 29.931-30.599 29.931-.243 0-.485-.003-.726-.008l.036.001h-69.291v88.917c0 118.386-66.389 229.092-173.284 288.939l-12.743 7.168 12.743 7.168c106.951 59.847 173.284 170.553 173.284 288.939v109.511h69.803c.206-.005.448-.008.691-.008 16.677 0 30.245 13.314 30.654 29.893l.001.038c-.472 16.598-14.04 29.873-30.708 29.873-.224 0-.448-.002-.671-.007l.033.001H88.746a34.3 34.3 0 0 1-.581.005c-16.668 0-30.236-13.275-30.707-29.829l-.001-.044c0-16.498 13.995-29.924 31.289-29.924h73.5V669.809c0-118.386 66.332-229.092 173.284-288.939l12.743-7.168-12.743-7.168C228.579 306.687 162.246 195.981 162.246 77.595v-88.917H88.177a30.6 30.6 0 0 1-.635.007c-16.677 0-30.244-13.314-30.654-29.892l-.001-.038c.473-16.597 14.04-29.872 30.708-29.872.204 0 .408.002.611.006h847.046c17.294 0 31.289 13.426 31.289 29.867"/><glyph unicode="" glyph-name="douban" d="M78.507 827.733H960v-98.987H78.507v98.987zM883.2 236.373V624.64H154.453V236.373H883.2zm-622.933 289.28H778.24v-189.44H260.267v189.44zM725.333 12.8c31.573 48.64 61.44 104.96 89.6 168.96l-105.813 38.4c-27.307-75.947-59.733-145.067-96.427-207.36h-184.32c-30.72 81.067-64.853 150.187-104.107 207.36l-97.28-38.4c40.107-60.587 72.533-116.053 97.28-168.96H52.906v-98.133h930.987V12.8h-258.56zm0 0"/><glyph unicode="" glyph-name="segmentfault" d="M96.836 106.787c40.26-36.465 98.127-69.195 153.49-69.195 40.26 0 85.542 17.616 85.542 65.428 0 52.832-61.648 61.638-130.839 91.841-78 33.975-143.427 75.479-143.427 174.88 0 129.582 104.426 184.931 234.005 184.931 70.453 0 145.947-16.364 200.034-51.581v-15.09L445.319 388.6c-35.221 26.416-83.036 44.026-135.879 44.026-46.545 0-75.479-18.859-75.479-55.347 0-47.793 55.362-57.87 124.555-84.287 95.609-36.492 153.477-76.75 153.477-178.644 0-133.348-104.414-191.239-242.8-191.239-88.075 0-158.528 23.917-225.201 74.23v15.089l52.844 94.361zM665.408-75.6c0 12.761 2.529 360.012 3.796 480.014-34.423-1.267-70.214-1.267-80.389-1.267l1.267 128.939c10.225 0 44.7 0 77.857-1.267 0 5.114-2.529 111.069-2.529 114.892 0 144.25 84.238 197.887 194.037 197.887 47.233 0 95.727-7.669 144.278-28.096v-19.135l-37.056-102.132c-20.404 11.492-43.386 17.87-63.837 17.87-35.739 0-58.723-17.87-58.723-85.527 0-22.981 1.315-90.641 1.315-95.756 38.273 1.267 111.069 1.267 121.245 1.267l-1.267-128.939c-10.227 0-82.973 0-121.294 1.267 2.58-120.001 2.58-467.253 2.58-480.014H665.406z"/><glyph unicode="" glyph-name="qq" d="M512.001 860.491c-181.977 0-310.232-146.953-296.209-399.618-10.02-18.762-65.726-160.373-83.254-219.966s-28.044-158.182-9.202-162.126c18.842-3.944 82.815 95.96 82.815 95.96 4.381-121.813 97.713-187.54 95.523-187.54S195.635-44.347 214.915-75.02s267.726-12.269 297.084-9.202c29.358-3.067 277.804-21.47 297.084 9.202s-84.568 62.221-86.759 62.221 91.141 65.726 95.523 187.54c0 0 63.974-99.904 82.815-95.96s8.325 102.534-9.202 162.126-73.343 201.931-83.254 219.966C821.209 696.619 706.599 860.491 512 860.491z"/><glyph unicode="" glyph-name="friendship" d="M662.467 509.884c-5.669 5.668-13.501 9.174-22.151 9.174s-16.482-3.506-22.151-9.174l-3.449-3.449c-81.933-81.92-189.334-55.935-262.526-4.298l-30.402 21.448c-8.075 5.744-13.279 15.068-13.279 25.607 0 8.653 3.508 16.487 9.18 22.157l119.498 119.498c5.669 5.672 9.175 13.505 9.175 22.158s-3.506 16.486-9.175 22.158l-2.454 2.454c-46.597 46.597-111.433 71.6-177.728 68.404-67.117-3.17-127.655-33.399-170.446-85.13-76.415-92.372-67.794-233.225 19.618-320.65l49.953-49.953c3.761-3.761 6.087-8.957 6.087-14.697s-2.326-10.935-6.087-14.697l-27.178-27.178c-7.818-7.836-12.652-18.651-12.652-30.596 0-13.317 6.009-25.231 15.464-33.178l.066-.054c16.952-14.246 43.401-12.269 60.193 4.51l25.295 25.295a20.708 20.708 0 0 0 14.69 6.085c11.474 0 20.775-9.301 20.775-20.775a20.707 20.707 0 0 0-6.085-14.69l-27.178-27.178c-7.818-7.836-12.652-18.651-12.652-30.596 0-13.317 6.009-25.231 15.464-33.178l.066-.054c16.952-14.246 43.401-12.283 60.193 4.51l25.295 25.295a20.707 20.707 0 0 0 14.356 5.754c11.479 0 20.785-9.306 20.785-20.785a20.713 20.713 0 0 0-5.768-14.37l.007.008-27.178-27.178c-7.814-7.837-12.645-18.652-12.645-30.595 0-13.316 6.006-25.23 15.457-33.179l.066-.054c16.978-14.246 43.427-12.283 60.206 4.51l25.295 25.295a20.717 20.717 0 0 0 14.69 6.083c11.476 0 20.78-9.303 20.78-20.78 0-5.74-2.327-10.936-6.089-14.697l-25.295-25.295c-16.793-16.793-18.769-43.241-4.51-60.206 7.959-9.484 19.087-14.989 31.343-15.519 12.11-.743 23.929 4.099 32.484 12.641l41.159 41.146a1.01 1.01 0 0 0 1.433 0l39.368-39.368c15.121-15.135 39.382-19.101 56.917-6.844 11.366 7.927 18.71 20.938 18.71 35.665 0 11.946-4.832 22.764-12.649 30.604l-27.257 27.257a20.708 20.708 0 0 0-6.085 14.69c0 11.474 9.301 20.775 20.775 20.775a20.707 20.707 0 0 0 14.69-6.085l25.481-25.481c15.121-15.135 39.382-19.101 56.917-6.844 11.366 7.927 18.71 20.938 18.71 35.665 0 11.946-4.832 22.764-12.649 30.604l-27.257 27.257a20.708 20.708 0 0 0-6.085 14.69c0 11.474 9.301 20.775 20.775 20.775a20.707 20.707 0 0 0 14.69-6.085l25.481-25.481c15.135-15.135 39.382-19.101 56.93-6.844 11.366 7.924 18.709 20.933 18.709 35.658 0 11.951-4.838 22.772-12.662 30.611l-27.257 27.257a20.707 20.707 0 0 0-5.754 14.356c0 11.479 9.306 20.785 20.785 20.785a20.713 20.713 0 0 0 14.37-5.768l-.008.007 25.481-25.481c15.121-15.135 39.382-19.101 56.917-6.844 11.367 7.93 18.71 20.943 18.71 35.672 0 11.948-4.833 22.768-12.65 30.61l-216.1 216.18zm241.648 257.977v.013c-92.359 76.389-233.212 67.794-320.637-19.618l-20.334-20.347-.119.119L417.33 582.347c-15.731-15.731-10.412-42.074 9.948-51.041 38.931-17.151 95.688-27.988 143.135 19.459l47.884 47.884c5.669 5.668 13.501 9.174 22.151 9.174s16.482-3.506 22.151-9.174l196.443-196.457c5.67-5.672 13.504-9.181 22.158-9.181s16.488 3.508 22.158 9.18l17.509 17.509c46.597 46.597 71.534 111.38 68.39 177.741-3.183 67.091-33.413 127.629-85.143 170.419z"/><glyph unicode="" glyph-name="dialog" d="M311.129-96c-3.325 0-6.484.665-9.643 1.995-8.812 3.824-14.465 12.47-14.465 21.947V53.969h-161.94c-50.045 0-92.442 42.397-92.442 92.442v625.147c0 50.876 41.399 92.442 92.442 92.442h775.116c24.441 0 48.549-10.142 65.674-28.098 17.125-17.79 26.269-40.901 25.438-65.175V146.245c0-50.045-42.397-92.442-92.442-92.442H482.546L327.423-89.848C322.934-93.838 317.115-96 311.129-96zM125.247 815.95c-24.441 0-44.392-19.952-44.392-44.392V146.411c0-24.108 20.284-44.392 44.392-44.392h186.048c13.301 0 23.942-10.807 23.942-23.942v-95.102L456.941 95.701c4.489 4.157 10.308 6.318 16.294 6.318H899.2c24.108 0 44.392 20.284 44.392 44.392v625.147c.333 11.971-3.824 22.612-11.971 30.925-8.313 8.479-19.619 13.467-31.257 13.467H125.248zm641.94-281.981H258.424c-13.301 0-23.942 10.807-23.942 23.942s10.807 23.942 23.942 23.942h508.763c13.301 0 23.942-10.807 23.942-23.942s-10.641-23.942-23.942-23.942zm0-198.019H258.424c-13.301 0-23.942 10.807-23.942 23.942s10.807 23.942 23.942 23.942h508.763c13.301 0 23.942-10.807 23.942-23.942s-10.641-23.942-23.942-23.942z"/><glyph unicode="" glyph-name="cup-fill" d="M822.245 472.077c-8.001 0-34.057.212-62.236.354l.142 61.882c0 34.198-27.826 61.953-61.953 61.953l-619.744.212c-34.198 0-61.953-27.755-61.953-61.953V69.204c0-102.594 83.194-185.789 185.789-185.789h372.144c102.594 0 184.797 83.194 184.797 185.789l.071 31.72c28.038-.212 56.714-.425 62.874-.425 102.311 0 185.293 82.274 185.293 184.939.071 102.594-82.911 186.638-185.222 186.638zm0-310.403c-6.16 0-34.694.142-62.803.354l.496 248.45c28.109-.142 54.236-.283 62.307-.283 70.733 0 124.473-52.82 124.473-123.694 0-71.016-53.74-124.827-124.473-124.827zm-248.38 496.263c17.134 0 31.012 13.807 31.012 30.941v154.777c0 17.134-13.878 31.012-31.012 31.012s-30.941-13.878-30.941-31.012V688.807c0-17.064 13.807-30.87 30.941-30.87zm-371.577 0c17.064 0 30.941 13.807 30.941 30.941v154.777c0 17.134-13.807 31.012-30.941 31.012-17.064 0-30.941-13.878-30.941-31.012V688.807c0-17.064 13.878-30.87 30.941-30.87zm185.789 0c17.134 0 31.012 13.807 31.012 30.941v154.777c0 17.134-13.878 31.012-31.012 31.012s-30.941-13.878-30.941-31.012V688.807c0-17.064 13.807-30.87 30.941-30.87z"/><glyph unicode="" glyph-name="shu-fill" d="M24.121 719.234H63.15V132.62h11.68c296.415 0 388.626-60.619 415.703-89.648h43.604c27.383 28.876 120.17 89.648 414.94 89.648h11.71v586.614h39.091V93.59h-50.801c-323.158 0-384.051-73.06-389.906-81.384l-5.855-8.264h-82.237l-5.855 8.538c-2.349 3.293-59.126 81.11-390.394 81.11H24.12zm900.229 44.824v-575.85c-228.023-2.988-337.064-47.477-389.175-85.806v555.603c8.933 15.612 72.297 101.906 389.175 106.053zm-824.791 0c319.225-4.147 380.973-91.569 389.175-105.839V102.403c-52.111 38.329-161.213 82.817-389.175 85.806z"/><glyph unicode="" glyph-name="shu" d="M914.166 679.24v121.876c-346.01 0-399.094-113.889-402.145-121.262-3.072 7.373-56.156 121.262-402.145 121.262V679.24c-26.72 1.721-57.941 2.702-89.391 2.703h-.004V53.637s271.79 29.368 406.733-42.209c22.897-12.124 47.473-44.298 84.808-44.524 37.274-.164 61.993 32.44 84.972 44.626 134.963 71.455 406.528 42.086 406.528 42.086v628.326c-31.437 0-61.215-1.004-89.354-2.703zM481.219 95.171c-94.556 54.211-235.11 63.939-322.519 63.939h-4.096v596.623c264.786-8.274 314.081-89.498 316.436-93.716l10.158-24.351V95.192l.02-.02zm388.218 63.938H865.3c-87.982 0-230.052-9.871-324.547-65.126v538.726l12.206 29.286c2.335 4.157 51.507 85.463 316.457 93.716l.02-596.603z"/><glyph unicode="" glyph-name="home-fill" horiz-adv-x="1025" d="M961.469 448.96L597.4 827.886C574.771 851.429 544.851 864 512.44 864s-62.971-12.571-85.577-36.114L62.772 448.96c-37.554-39.109-32.731-72.914-26.514-87.04 4.434-10.011 21.714-23.634 64.754-23.634h68.571V41.143c0-66.194 29.989-136.8 97.531-136.8h61.257l92.64-.343v297.143c0 23.817-10.926 68.571 22.857 68.571h137.143c33.783 0 22.857-43.246 22.857-68.571V-96l92.023.343h61.257c67.543 0 98.149 70.606 98.149 136.8v297.143h68.571c43.04 0 59.703 13.623 64.137 23.634 6.194 14.126 11.04 47.931-26.537 87.04z"/><glyph unicode="" glyph-name="clock" d="M510.68 104.399h4.486l2.194-.117 2.097-.272 2.078-.447 1.961-.388 2.058-.544 2.214-.893 1.825-.524 1.903-.854 1.845-1.01 1.806-1.165 1.825-1.087 3.398-2.563 2.874-2.835 2.835-2.971 2.583-3.34 1.087-1.884 1.01-1.825 1.165-1.806.66-1.942.621-1.922.835-2 .699-2.233.369-1.961.466-2.078.194-2.272.097-2.155v-4.466l-.097-2.291-.194-2.078-.466-2.194-.369-2.175-.699-1.961-.835-2.019-.68-1.942-.66-1.864-1.165-2.039-1.01-1.709-1.087-1.825-2.583-3.282-2.835-3.204-2.874-2.719-3.398-2.544-1.825-1.126-1.806-.971-1.845-1.029-1.903-.835-1.825-.816-2.214-.777-2.058-.544-1.961-.388-2.078-.447-2.097-.175-2.194-.233-2.311-.155-2.175.155-2.214.233-2.019.175-2.194.447-2.252.388-1.903.544-2.097.777-1.903.816-2.019.835-1.825 1.029-1.845.971-1.651 1.126-3.223 2.544-3.243 2.719-2.641 3.204-2.447 3.282-1.223 1.825-.99 1.709-.99 2.039-.757 1.864-.835 1.961-.621 2.019-.602 1.961-.544 2.175-.291 2.194-.175 2.078-.214 2.291-.233 2.117.233 2.35.214 2.155.175 2.272.291 2.078.544 1.961.602 2.233.621 2 .835 1.922.816 1.942.99 1.806.99 1.825 1.223 1.884 2.447 3.34 2.641 2.971 3.243 2.835 3.223 2.563 1.651 1.087 1.845 1.165 1.825 1.01 2.019.854 1.903.524 2.097.893 1.903.544 2.252.388 2.194.447 2.019.272 2.214.097zm322.398 323l2.466-.078 2-.136 2.369-.117 2.058-.583 1.961-.252 2.35-.738 2-.68 1.825-.854 2-.835 1.825-.99 1.825-1.01 1.825-1.146 3.379-2.602 2.99-2.563 2.816-3.146 2.563-3.398 1.068-1.651 1.223-1.864.99-1.981.893-1.825.854-1.981.447-2.117.621-1.942.388-2.136.524-2.233.252-2.117.097-2.155v-4.486l-.097-2.252-.311-2.136-.524-2.214-.388-2.019-.621-2.058-.447-2.155-.854-1.806-.893-1.961-.99-1.864-1.223-1.922-1.068-1.709-2.563-3.379-2.816-2.99-2.99-2.874-3.379-2.466-1.825-1.165-1.825-1.068-1.825-.913-2-.816-1.825-.718-2-.835-2.35-.447-1.961-.544-2.058-.291-2.369-.408-2-.117h-4.486l-2.252.117-2.175.408-2.097.291-2.369.544-1.922.447-1.961.835-1.961.718-1.825.816-2.078.913-1.806 1.068-1.573 1.165-3.418 2.466-3.204 2.874-2.757 2.99-2.427 3.379-1.223 1.709-.971 1.922-.99 1.864-.835 1.961-.874 1.806-.738 2.155-.583 2.058-.408 2.019-.466 2.214-.019 2.136-.252 2.252-.117 2.214.136 2.272.252 2.155.117 2.117.466 2.233.408 2.136.583 1.942.738 2.117.874 1.981.835 1.825.99 1.981.971 1.864 1.223 1.651 2.427 3.398 2.757 3.146 3.204 2.563 3.418 2.602 1.573 1.146 1.806 1.01 2.078.99 1.825.835 1.961.854 1.961.68 1.922.738 2.369.252 2.097.583 2.175.117 2.252.136 1.961.078zM512.272 755.584l3.379-.117 3.456-.544 3.01-.854 2.99-1.126 2.835-1.262 2.835-1.651 2.447-1.825 2.369-2.272 2.155-2.272 1.825-2.544 1.67-2.796 1.553-2.816.99-3.107.893-3.068.447-3.398.136-3.379V442.816l3.631-2.272 3.651-2.486 3.437-2.835 3.223-2.971 3.146-3.185 2.68-3.418 2.544-3.573 2.291-3.612 2.214-3.845 1.961-3.884 1.631-4.253 1.243-4.369 1.01-4.388.816-4.524.544-4.602.233-4.699-.233-3.456-.369-3.223-.252-3.534-.757-3.418-.777-3.223-.951-3.262-.893-3.165-1.185-3.029-1.592-2.874-1.437-3.126-1.456-2.816-1.806-2.66-1.806-2.641-2.097-2.738-2.175-2.194-2.369-2.447-2.272-2.447-2.388-2.039-2.621-1.942-5.359-3.709-2.757-1.709-2.913-1.573-3.068-1.185-3.029-1.185-3.01-1.087-3.437-1.01-3.185-.602-3.282-.66-3.554-.66-3.379-.058-3.534-.175-4.738.175-4.719.505-4.544.874-4.466 1.165-4.563 1.262-4.272 1.864-4.02 1.806-3.825 2.408-3.903 2.466-6.991 5.67-3.146 3.262-3.049 3.204-2.486 3.554-2.602 3.748-2.272 3.884H265.72l-3.592.194-3.126.447-3.185.816-3.185 1.301-2.835 1.223-2.641 1.67-2.563 2.019-2.524 2-1.961 2.369-1.981 2.699-1.651 2.68-1.243 2.835-1.359 2.952-.583 3.243-.621 3.359-.078 3.243.078 3.515.621 3.223.583 3.107 1.359 3.262 1.243 2.777 1.651 2.699 1.981 2.68 1.961 2.252 2.524 1.942 2.563 2.155 2.641 1.651 2.835 1.282 3.185 1.107 3.185.796 3.126.66 3.592.078h187.326l2.563 3.806 2.835 3.845 2.796 3.476 3.262 3.379 3.398 3.243 3.651 2.816 3.903 2.699 4 2.233v278.902l.175 3.379.447 3.398.913 3.068.913 3.107 1.456 2.816 1.767 2.796 1.767 2.544 2.039 2.272 2.427 2.272 2.583 1.825 2.641 1.651 2.971 1.262 2.913 1.126 3.301.854 3.107.544 3.398.136zm-10.641 28.37l-10.233-.544-10.253-.699-10.02-.874-10.117-1.068-9.845-1.282-10.039-1.728-9.709-1.806-19.34-4.486-9.476-2.621-9.437-2.893-9.398-3.029-9.262-3.087-9.126-3.573-9.01-3.651-8.855-4.097-8.991-4.097-8.486-4.388-8.816-4.447-8.233-4.68-8.272-5.088-8.194-4.932-8.078-5.34-7.864-5.456-7.884-5.689-7.418-5.825-7.379-6-7.321-6.33-7.262-6.311-7.204-6.466-6.874-6.622-6.641-7.029-6.622-6.991-6.427-7.204-6.233-7.282-5.961-7.495-5.806-7.728-5.612-7.631-5.476-7.981-5.379-8.02-5.223-8.117-4.796-8.369-4.68-8.563-4.544-8.447-4.447-8.68-4.136-8.738-3.884-8.855-3.651-9.185-3.573-8.971-3.049-9.398-3.243-9.301-2.641-9.262-2.738-9.709-2.155-9.534-2.35-9.884-1.845-9.554-1.573-9.981-1.359-10.136-1.243-9.961-.913-9.981-.66-10.156-.252-10.233-.311-10.466.388-10.233.252-10.233.66-10.117.913-10.097 1.243-10.02 1.359-9.981 1.573-9.864 1.845-9.864 2.35-9.709 2.155-9.67 2.738-9.437 2.641-9.554 3.243-9.301 3.049-9.126 3.573-9.204 3.651-8.971 3.884-8.952 4.136-8.932 4.447-8.699 4.544-8.486 4.68-8.486 4.796-8.369 5.223-8.117 5.379-8.039 5.476-7.728 5.612-7.864 5.806-7.728 5.961-7.476 6.233-7.301 6.427-7.165 6.622-6.991 6.641-6.816 6.874-6.855 7.204-6.466 7.262-6.369 7.321-6.194 7.379-6.175 7.418-5.728 7.903-5.806 7.864-5.476 8.078-5.262 8.194-4.952 8.272-5.088 8.233-4.641 8.816-4.466 8.486-4.369 8.991-4.097 8.855-3.922 9.01-3.728 9.126-3.32 9.262-3.32 9.398-2.971 9.437-2.932 19.127-4.932 9.69-1.961 9.709-2.136 10.039-1.418 9.845-1.573 10.117-1.068 10.02-.913 10.253-.621 10.233-.311 10.311-.155 10.428.155 10.117.311 10.039.621 10.408.913 9.961 1.068 10.02 1.573 9.728 1.418 9.845 2.136 9.612 1.961 9.631 2.486 9.651 2.447 9.437 2.932 9.185 2.971 9.418 3.32 9.146 3.32 9.068 3.728 8.835 3.922 8.641 4.097 8.932 4.369 8.466 4.466 8.486 4.641 8.194 5.088 8.097 4.952 8.194 5.262 7.864 5.476 7.709 5.806 7.748 5.728 7.457 6.175 7.301 6.194 7.185 6.369 7.068 6.466 6.835 6.855 6.738 6.816 6.524 6.991 6.389 7.165 6.078 7.301 6.097 7.476 6.078 7.728 5.554 7.864 5.379 7.728 5.379 8.039 4.952 8.117 5.126 8.369 4.641 8.486 4.505 8.486 4.408 8.699 4.02 8.932 3.864 8.952 3.651 8.971 3.573 9.204 3.32 9.126 3.068 9.301 2.757 9.554 2.563 9.437 2.369 9.67 2.175 9.709 1.825 9.864 1.553 9.864 1.631 9.981 1.029 10.02.874 10.097.563 10.117.388 10.233.117 10.233-.252 10.466-.388 10.233-.563 10.156-.874 9.981-1.029 9.961-1.631 10.136-1.553 9.981-1.825 9.554-2.175 9.884-2.369 9.534-2.563 9.709-2.757 9.262-3.068 9.301-3.32 9.398-3.573 8.971-3.651 9.185-3.864 8.855-4.02 8.738-4.408 8.68-4.505 8.447-4.641 8.563-5.126 8.369-4.952 8.117-5.359 8.02-5.379 7.981-5.554 7.631-6.078 7.728-6.097 7.495-6.078 7.282-6.389 7.204-6.524 6.991-6.738 7.029-6.835 6.622-7.068 6.466-7.185 6.311-7.301 6.33-7.457 6-7.748 5.825-7.709 5.748-7.864 5.456-8.194 5.34-8.097 4.932-8.194 5.088-8.486 4.68-8.466 4.447-8.932 4.388-8.641 4.097-8.835 4.097-9.068 3.651-9.146 3.573-18.603 6.117-9.437 2.893-9.651 2.621-9.631 2.233-9.612 2.252-9.845 1.806-9.728 1.728-10.02 1.282-9.961 1.068-10.408.874-10.039.699-10.117.544h-20.719v-.058zm10.311 66.08l12.078-.078 11.845-.524 11.903-.621 11.69-1.204 11.787-1.282 11.69-1.573 11.36-2 11.495-2.233 11.379-2.408 11.204-2.66 11.049-3.087 10.932-3.282 11.01-3.476 10.719-3.806 10.661-4.097 10.389-4.388 10.544-4.641 10.039-4.641 10.117-5.165 10.156-5.088 9.748-5.573 9.651-5.845 9.728-5.709 9.204-6.194 9.224-6.583 9.049-6.524 8.991-6.699 8.719-7.126 8.408-7.243 8.447-7.612 7.942-7.457 8.078-7.825 7.923-7.942 7.67-8.078 7.612-8.602 6.971-8.447 7.146-8.738 6.796-9.01 6.544-9.029 6.369-9.107 6.214-9.631 5.961-9.36 5.767-9.709 5.456-9.826 5.223-9.961 5.165-10.02 4.719-10.292 4.563-10.389 4.33-10.466 3.922-10.641 4.058-10.835 3.262-10.758 3.379-11.185 3.029-11.068 2.835-11.127 2.33-11.379 2.466-11.243 1.806-11.554 1.748-11.631 1.223-11.709.893-11.787.913-11.884.35-12.02.214-11.962-.291-11.903-.35-12.097-.913-11.826-.893-11.67-1.223-11.787-1.748-11.398-1.806-11.573-2.466-11.476-2.33-11.418-2.835-11.088-3.029-11.088-3.379-10.952-3.262-10.894-4.058-10.661-3.922-10.68-4.33-10.622-4.563-10.35-4.719-10.233-5.165-10.117-5.223-10.02-5.456-9.826-5.767-9.709-5.961-9.476-6.214-9.36-6.311-9.301-6.544-9.01-6.796-8.932-7.146-8.641-6.971-8.563-7.612-8.35-7.67-8.117-7.923-8.02-8.078-7.903-7.942-7.534-8.447-7.651-8.408-7.185-8.719-6.855-8.991-6.913-9.049-6.68-9.224-6.233-9.204-6.194-9.728-6.039-9.651-5.631-9.748-5.476-10.156-5.321-10.117-5.088-10.039-4.777-20.913-8.952-10.661-4-10.719-3.651-11.01-3.884-10.932-3.087-11.049-2.854-11.204-2.816-11.379-2.583-11.515-2.214-11.36-1.922-11.69-1.67-11.787-1.185-11.69-1.087-11.903-.796-11.845-.563-12.059-.136-11.884.175-11.903.563-12.02.796-11.67 1.087-11.709 1.185-11.69 1.67-11.593 1.903-11.321 2.214-11.34 2.583-22.273 5.67-11.01 3.087-10.816 3.884-10.874 3.651-10.68 4-20.874 8.913-10.175 4.777-10.02 5.088-10.097 5.321-9.767 5.476-9.612 5.631-9.767 6.039-9.282 6.194-9.088 6.233-9.185 6.68-17.69 13.767-8.466 7.204-8.447 7.651-8.117 7.534-8.02 7.903-7.67 8.02-7.825 8.117-7.359 8.35-7.282 8.563-7.029 8.641-13.457 17.942-6.466 9.301-6.039 9.36-6 9.476-5.728 9.709-5.456 9.826-5.398 10.02-4.99 10.117-4.757 10.233-4.447 10.35-4.291 10.622-4.175 10.68-3.709 10.661-3.573 10.894-3.359 10.952-3.01 11.088-2.66 11.088-2.563 11.418-2.058 11.476-1.922 11.573-1.728 11.398-1.204 11.787-1.243 11.67-.447 11.826-.66 12.097-.078 11.903.078 12 .66 12.02.447 11.884 1.243 11.787 1.204 11.709 1.728 11.631 1.922 11.554 2.058 11.243 2.563 11.379 2.66 11.127 3.029 11.068 3.359 11.185 3.573 10.758 3.709 10.835 4.175 10.641 4.291 10.466 4.447 10.389 4.757 10.292 4.99 10.02 5.398 9.961 5.456 9.826 5.728 9.709 6 9.36 6.039 9.631 6.466 9.107 6.757 9.029 6.699 9.01 7.029 8.738 7.282 8.447 7.359 8.602 7.825 8.078 7.67 7.942 8.02 7.825 8.117 7.457 8.447 7.612 8.486 7.243 8.816 7.126 8.874 6.699 9.185 6.524 9.088 6.583 9.282 6.194 9.767 5.709 9.612 5.845 9.767 5.573 10.097 5.088 10.02 5.165 10.175 4.641 10.525 4.641 10.35 4.388 10.68 4.097 10.874 3.806 10.816 3.476 11.01 3.282 11.185 3.087 11.088 2.66 11.34 2.408 11.321 2.233 11.593 2 11.69 1.573 11.709 1.282 11.67 1.204 12.02.621 11.903.524 11.845.039zm0 0"/><glyph unicode="" glyph-name="star" d="M512 802.133l124.587-252.587c6.827-15.36 22.187-25.6 39.253-29.013l278.187-40.96L752.64 283.306c-11.947-11.947-18.773-29.013-15.36-46.08l47.787-278.187L535.894 90.452c-6.827 3.413-15.36 6.827-23.893 6.827s-17.067-1.707-23.893-6.827L238.935-40.961l47.787 278.187c3.413 17.067-3.413 34.133-15.36 46.08L69.975 479.573l278.187 40.96c17.067 1.707 32.427 13.653 39.253 29.013l124.587 252.587M512 855.04c-6.827 0-13.653-3.413-17.067-10.24l-138.24-281.6c-3.413-5.12-8.533-8.533-13.653-10.24L32.427 508.587c-15.36-1.707-20.48-20.48-10.24-32.427L245.76 257.707c5.12-3.413 6.827-10.24 5.12-17.067L197.973-68.267c-1.707-11.947 6.827-22.187 18.773-22.187 3.413 0 5.12 0 8.533 1.707l278.187 148.48c3.413 1.707 5.12 1.707 8.533 1.707s5.12 0 8.533-1.707l276.48-145.067c3.413-1.707 5.12-1.707 8.533-1.707 10.24 0 20.48 10.24 18.773 22.187l-52.907 308.907c-1.707 6.827 1.707 11.947 5.12 17.067l223.573 218.453c10.24 10.24 5.12 29.013-10.24 32.427l-308.907 42.667c-6.827 1.707-11.947 5.12-13.653 10.24L529.064 844.8c-3.413 6.827-10.24 10.24-17.067 10.24z"/><glyph unicode="" glyph-name="comment" d="M510.875 833.772c-263.512 0-477.129-178.608-477.129-398.932 0-113.672 56.862-216.238 148.099-288.901L161.033-54.018l273.698 94.986a572.884 572.884 0 0 1 76.145-5.06c263.511 0 477.129 178.608 477.129 398.932s-213.619 398.932-477.13 398.932zm297.473-633.289c-38.114-31.866-82.692-56.956-132.497-74.568-52.143-18.44-107.65-27.79-164.977-27.79-22.73 0-45.567 1.517-67.877 4.508l-14.678 1.969-195.28-67.772 14.213 136.553-26.65 21.224c-39.491 31.451-70.412 68.213-91.905 109.264-21.722 41.49-32.738 85.555-32.738 130.97 0 44.007 10.361 86.803 30.795 127.198 20.194 39.92 49.346 75.974 86.643 107.158 38.113 31.867 82.692 56.956 132.496 74.569 52.143 18.44 107.65 27.79 164.977 27.79s112.833-9.35 164.977-27.79c49.805-17.613 94.383-42.702 132.497-74.569 37.297-31.185 66.449-67.239 86.643-107.158 20.436-40.395 30.796-83.191 30.796-127.198 0-44.008-10.361-86.804-30.796-127.198-20.191-39.921-49.342-75.976-86.64-107.161zM255.964 436.476c0-26.523 21.502-48.025 48.025-48.025s48.025 21.502 48.025 48.025-21.502 48.025-48.025 48.025-48.025-21.502-48.025-48.025zm207.521 0c0-26.523 21.502-48.025 48.025-48.025s48.025 21.502 48.025 48.025-21.502 48.025-48.025 48.025-48.025-21.502-48.025-48.025zm207.522 0c0-26.523 21.502-48.025 48.025-48.025s48.025 21.502 48.025 48.025-21.502 48.025-48.025 48.025-48.025-21.502-48.025-48.025z"/><glyph unicode="" glyph-name="bill" d="M486.777 566.492l15.377 20.1 15.011-12.302L494.832 545l13.18-34.672 31.12 40.273 15.011-12.192-32.951-43.239 53.087-42.543-16.475-21.967-53.087 42.653-32.219-41.994-15.011 12.228 29.656 39.175-35.88 4.906-22.699-29.802-15.377 12.228 16.109 20.649-73.59 10.032 19.77 25.848 108.371-18.892-43.934 103.648 19.77 25.885zM291.635-127.854h312.666l.732 110.056H292.367zM849.967 98.372c17.667 6.63 31.641 19.652 39.36 36.181l.181.431c4.112 8.797 6.512 19.101 6.512 29.965a72.036 72.036 0 0 1-4.478 25.086l.162-.5-79.448 224.651c-12.244 32.099-42.775 54.487-78.535 54.487-3.289 0-6.533-.189-9.723-.558l.389.037-12.448-1.904c-18.816-2.672-34.733-13.251-44.518-28.205l-.149-.243c-5.952-9.768-9.476-21.582-9.476-34.219a66.489 66.489 0 0 1 3.013-19.852l-.127.471 35.514-125.03c.778-2.073 1.228-4.469 1.228-6.97 0-3.726-.999-7.219-2.745-10.225l.052.098c-2.955-3.511-7.351-5.726-12.266-5.726-.451 0-.897.019-1.339.055l.058-.004h-13.18l-20.137-40.822h108.738l-22.333 75.128-35.514 124.957c-.852 2.29-1.345 4.936-1.345 7.697 0 11.721 8.883 21.367 20.284 22.572l.099.008 12.448 1.794c1.062.09 2.298.142 3.546.142 18.48 0 34.323-11.287 41.013-27.344l.108-.294 79.448-224.614c1.255-3.19 1.983-6.885 1.983-10.749 0-4.532-1-8.83-2.792-12.685l.078.186c-3.476-7.204-9.381-12.776-16.63-15.74l-.211-.076-206.125-75.677c-26.718-9.13-57.547-14.867-89.569-15.877l-.496-.012H356.073c-16.433.245-29.66 13.624-29.66 30.092 0 .168.001.337.004.504v-.025 104.674c-13.546 10.727-26.727 21.528-39.907 32.255V75.527a65.26 65.26 0 0 1-.006-.921c0-38.604 31.038-69.959 69.52-70.472l.048-.001h184.524c37.233.973 72.596 7.599 105.709 19.047l-2.463-.741zM531.809 896l313.765-251.634-118.257-154.869c-4.036.783-8.677 1.231-13.422 1.231-3.53 0-7.002-.248-10.4-.727l.391.045-12.814-1.831c-19.636-2.743-36.236-13.834-46.341-29.507l-.156-.259c-6.407-10.263-10.206-22.726-10.206-36.077a68.865 68.865 0 0 1 3.012-20.207l-.129.488 6.59-22.919-202.098-264.741-313.398 251.671zm45.765-271.551c-24.586 19.944-56.26 32.021-90.754 32.021-47.176 0-89.076-22.589-115.474-57.54l-.264-.365c-19.543-25.477-31.318-57.806-31.318-92.886 0-47.881 21.937-90.639 56.308-118.771l.273-.216c24.592-19.924 56.263-31.988 90.751-31.988 47.162 0 89.054 22.558 115.477 57.473l.263.363c19.537 25.483 31.307 57.815 31.307 92.897 0 47.887-21.931 90.652-56.298 118.798l-.272.216z"/><glyph unicode="" glyph-name="search" d="M943.169 31.612L782.322 192.459c117.465 153.219 104.63 375.091-37.477 517.197-154.471 154.471-403.193 156.197-555.535 3.856C36.967 561.17 38.694 312.449 193.166 157.977 335.273 15.87 557.146 3.034 710.363 120.499L871.21-40.348c19.927-19.927 52.05-20.111 72.06-.102 19.871 19.872 20.045 51.914-.102 72.061zM675.737 227.086c-112.601-112.601-296.439-111.324-410.613 2.85s-115.45 298.012-2.85 410.613c112.601 112.601 296.439 111.324 410.613-2.85s115.45-298.012 2.85-410.613z"/><glyph unicode="" glyph-name="gitee" d="M891 467.2H465.8c-20.4 0-37-16.5-37-37v-92.4c0-20.4 16.5-37 37-37h258.9c20.4 0 37-16.6 37-37v-18.4c0-61.3-49.7-110.9-110.9-110.9H299.4c-20.4 0-37 16.6-37 37v351.3c0 61.3 49.7 110.9 110.9 110.9h517.6c20.4 0 37 16.5 37 37l.1 92.3c0 20.4-16.5 37-37 37H373.3C220.2 800 96 675.8 96 522.7V5c0-20.4 16.6-37 37-37h545.4C816.2-32 928 79.7 928 217.6v212.6c0 20.4-16.6 37-37 37z"/><glyph unicode="" glyph-name="list" d="M901.632 823.501H122.368c-26.788 0-48.704-21.917-48.704-48.704V-4.467c0-26.787 21.916-48.704 48.704-48.704h779.264c26.788 0 48.704 21.917 48.704 48.704v779.264c0 26.787-21.916 48.704-48.704 48.704zm0-827.969H122.368v779.264h779.264V-4.468zM329.359 555.629H231.95v48.701h97.409v-48.703zm462.689 0H378.064v48.701h413.984v-48.703zM329.359 360.812H231.95v48.705h97.409v-48.705zm462.689 0H378.064v48.705h413.984v-48.705zM329.359 165.996H231.95V214.7h97.409v-48.704zm462.689 0H378.064V214.7h413.984v-48.704z"/><glyph unicode="" glyph-name="wepay" d="M397.983 259.5c-57.461-34.709-65.984 19.477-65.984 19.477L259.99 460.993c-27.712 86.496 23.977 38.997 23.977 38.997s44.352-36.341 78.016-58.485c33.643-22.155 71.99-6.506 71.99-6.506l470.793 235.379C817.897 787.456 674.42 864 511.977 864 246.88 864 32.001 660.289 32.001 408.983c0-144.565 71.147-273.204 181.984-356.586L193.996-72.062s-9.75-36.331 24.022-19.477c23.007 11.478 81.664 52.672 116.586 77.707 52.531-20.395 113.33-32.213 176.889-32.213h.538-.028c265.076 0 479.999 203.711 479.999 455.017 0 72.788-18.112 141.534-50.187 202.559C791.809 513.782 442.936 286.603 397.986 259.5z"/><glyph unicode="" glyph-name="cup" d="M646.924-122.482H201.642C77.921-122.482 40.6-16.355 38.149 39.743l-.029 537.978c0 16.5 13.379 29.88 29.88 29.88h697.919c16.502 0 29.879-13.379 29.879-29.88V27.37c.6-10.431 1.78-65.493-35.643-106.373-26.409-28.843-64.503-43.478-113.232-43.478zM97.879 547.841v-506.8c.54-9.324 8.272-103.763 103.763-103.763h445.281c31.266 0 54.537 8.113 69.17 24.074 22.687 24.788 20.091 62.05 20.061 62.414a26.535 26.535 0 0 0-.116 2.627v521.448H97.88zm129.499 120.766c-16.502 0-29.88 13.379-29.88 29.88v164.318c0 16.5 13.379 29.88 29.88 29.88 16.5 0 29.88-13.379 29.88-29.88V698.487c0-16.502-13.379-29.88-29.88-29.88zm196.087 0c-16.5 0-29.88 13.379-29.88 29.88v164.318c0 16.5 13.379 29.88 29.88 29.88s29.88-13.379 29.88-29.88V698.487c0-16.502-13.379-29.88-29.88-29.88zm196.089 0c-16.502 0-29.88 13.379-29.88 29.88v164.318c0 16.5 13.379 29.88 29.88 29.88s29.879-13.379 29.879-29.88V698.487c0-16.502-13.379-29.88-29.879-29.88zm175.282-563.824c-16.502 0-29.88 13.379-29.88 29.879 0 16.502 13.379 29.88 29.88 29.88 73.11 0 132.592 59.483 132.592 132.592s-59.483 132.592-132.592 132.592c-16.502 0-29.88 13.379-29.88 29.88s13.379 29.88 29.88 29.88c106.068 0 192.352-86.299 192.352-192.352s-86.285-192.353-192.352-192.353z"/><glyph unicode="" glyph-name="archives" d="M644.71 321.741H379.289c-13.653 0-25.122-10.923-25.122-25.122 0-13.653 10.923-25.122 25.122-25.122H644.71c13.653 0 25.122 10.923 25.122 25.122s-11.469 25.122-25.122 25.122zm83.013 333.141H296.278c-13.653 0-25.122-10.923-25.122-25.122 0-13.653 10.923-25.122 25.122-25.122h431.991c13.653 0 25.122 10.923 25.122 25.122-.546 13.653-11.469 25.122-25.668 25.122zm0-166.571H296.278c-13.653 0-25.122-10.923-25.122-25.122 0-13.653 10.923-25.122 25.122-25.122h431.991c13.653 0 25.122 10.923 25.122 25.122-.546 14.199-11.469 25.122-25.668 25.122zm103.219 345.703H191.966c-71.543 0-129.98-58.436-129.98-129.98V65.058c0-72.09 58.436-130.526 129.98-130.526h638.976c72.09 0 130.526 58.436 130.526 130.526v638.976c.546 71.543-58.436 129.98-130.526 129.98zM911.77 65.058c0-44.237-36.045-80.828-80.828-80.828H191.966c-44.237 0-80.282 36.045-80.282 80.828v206.985h67.721l190.601-167.117h283.989l188.416 166.571h69.359V65.059zm0 256.683h-88.474L634.88 155.17H388.574L198.52 321.741h-86.289v382.293c0 44.237 36.045 80.282 80.282 80.282h638.976c44.237 0 80.828-36.045 80.828-80.282V321.741z"/><glyph unicode="" glyph-name="starfish" d="M745.933 499.068l-102.78 180.051-48.68 85.278c-18.476 30.088-50.255 48.402-85.17 48.402-35.289-.007-67.35-18.718-85.161-48.588L39.163 89.977c-6.755-14.988-9.722-28.909-9.722-43.12 0-55.196 44.406-100.047 99.303-100.047 23.914 0 46.564 8.572 64.39 23.875 86.935 77.354 198.164 120.61 316.056 120.61 50.899 0 100.679-8.027 148.056-23.61 62.223-20.457 119.518-53.704 168.485-97.447 18.482-15.281 40.598-23.429 63.906-23.429 54.904 0 99.303 44.848 99.303 100.047 0 15.786-3.65 31.105-10.563 44.934-24.099 42.296-24.099 42.296-94.399 165.448l-64.442 112.89c-7.009 12.279-22.645 16.551-34.924 9.541s-16.551-22.645-9.541-34.924l64.442-112.89 93.733-164.203c2.71-5.509 4.494-12.996 4.494-20.797 0-27.037-21.592-48.847-48.103-48.847-11.266 0-21.896 3.916-30.554 11.063-53.433 47.76-116.888 84.58-185.842 107.25-52.521 17.274-107.7 26.172-164.05 26.172-130.576 0-253.879-47.951-349.749-133.262-8.296-7.116-19.15-11.224-30.697-11.224-26.506 0-48.103 21.814-48.103 48.847 0 7.058 1.469 13.952 4.179 20.102l383.541 671.447c8.446 14.156 23.925 23.19 40.947 23.193 16.864 0 32.256-8.871 41.123-23.298 9.493-16.657 9.493-16.657 48.257-84.565l102.78-180.052c7.009-12.279 22.645-16.551 34.924-9.541s16.551 22.645 9.541 34.924zM346.1 301.195c10.442-6.534 28.852-15.765 54.16-24.844 39.088-14.023 82.373-22.813 128.891-23.851 49.016-1.094 96.887 8.302 141.712 24.602 25.496 9.271 44.6 18.641 55.63 25.195 12.155 7.222 16.153 22.93 8.931 35.085s-22.93 16.153-35.085 8.931c-1.866-1.109-5.914-3.314-11.913-6.257-10.266-5.035-22.032-10.1-35.06-14.837-39.259-14.275-81.013-22.471-123.073-21.532-40.69.908-78.599 8.606-112.745 20.856-12.69 4.553-23.913 9.408-33.516 14.222-5.553 2.784-9.195 4.844-10.773 5.832-11.985 7.5-27.781 3.864-35.281-8.122s-3.864-27.781 8.122-35.281z"/><glyph unicode="" glyph-name="star-half" d="M957.551 481.89c0-7.843-4.71-16.462-14.106-25.833L748.481 266.255 794.509-2.476c.626-2.505.953-6.088.953-10.8 0-17.84-7.367-26.785-22.074-26.785-6.917 0-14.107 2.205-21.625 6.565L510.744 93.365 269.75-33.495c-7.843-4.359-15.059-6.565-21.623-6.565-7.516 0-13.154 2.606-16.913 7.742-3.758 5.186-5.637 11.527-5.637 19.042 0 2.205.3 5.789.952 10.8l46.505 268.731-195.44 189.802c-9.096 9.697-13.63 18.316-13.63 25.833 0 13.155 10.022 21.448 30.068 24.906l269.683 38.988 120.721 244.301c6.89 14.709 15.66 22.075 26.308 22.075s19.419-7.366 26.31-22.075l120.746-244.3 269.684-38.988c20.046-3.459 30.068-11.753 30.068-24.907zM674.238 290.21l164.446 159.257-226.462 33.376-101.479 205.288v-517.24L713.25 64.226l-39.013 225.985z"/><glyph unicode="" glyph-name="star-fill" horiz-adv-x="1025" d="M512.005 870.946l158.218-320.585 353.787-51.409-256.002-249.541 60.433-352.357-316.436 166.36-316.436-166.36 60.433 352.357L0 498.952l353.787 51.409z"/><glyph unicode="" glyph-name="link" d="M476.899 348.899c-35.933 35.938-58.158 85.583-58.158 140.418s22.225 104.481 58.158 140.418l105.304 105.329c35.939 35.939 85.589 58.168 140.431 58.168 109.683 0 198.599-88.916 198.599-198.599 0-54.842-22.229-104.491-58.168-140.431L757.761 348.898a24.75 24.75 0 0 1-7.266-17.551c0-13.713 11.116-24.829 24.829-24.829 6.86 0 13.069 2.782 17.563 7.278l105.305 105.305c96.963 96.939 96.963 254.126 0 351.064-96.939 96.963-254.126 96.963-351.064 0L441.824 664.861c-96.963-96.963-96.963-254.126 0-351.064a24.734 24.734 0 0 1 17.246-6.968c13.71 0 24.824 11.114 24.824 24.824a24.745 24.745 0 0 1-6.975 17.253l.007-.007zm70.202 70.202c35.933-35.938 58.158-85.583 58.158-140.418s-22.225-104.481-58.158-140.418L441.797 32.936c-35.939-35.939-85.589-58.168-140.431-58.168-109.683 0-198.599 88.916-198.599 198.599 0 54.842 22.229 104.491 58.168 140.431l105.329 105.304a24.75 24.75 0 0 1 7.266 17.551c0 13.713-11.116 24.829-24.829 24.829a24.754 24.754 0 0 1-17.563-7.278L125.833 348.899c-96.963-96.939-96.963-254.126 0-351.064 96.939-96.963 254.126-96.963 351.064 0l105.304 105.304c96.963 96.963 96.963 254.126 0 351.064a24.734 24.734 0 0 1-17.246 6.968c-13.71 0-24.824-11.114-24.824-24.824a24.745 24.745 0 0 1 6.975-17.253l-.007.007z"/><glyph unicode="" glyph-name="diandian" d="M542.341 171.615h394.43v394.43l-393.853-.061-.576 91.083h303.407V778.43H542.342v91.022H390.638V566.045H117.571v-394.43h212.385v-275.221l212.385 275.221zm-273.067 99.882v187.536h515.793V271.497H269.274zM875.907 81.412c-50.184 0-90.84-41.112-90.84-91.841s40.657-91.872 90.84-91.872c50.153 0 90.84 41.112 90.84 91.872-.03 50.73-40.687 91.841-90.84 91.841zm-272.885 0c-50.153 0-90.84-41.112-90.84-91.841s40.657-91.872 90.84-91.872c50.153 0 90.84 41.112 90.84 91.872 0 50.73-40.687 91.841-90.84 91.841zm-455.111 0c-50.153 0-90.84-41.112-90.84-91.841s40.657-91.872 90.84-91.872c50.153 0 90.84 41.112 90.84 91.872 0 50.73-40.687 91.841-90.84 91.841z"/><glyph unicode="" glyph-name="huaban" d="M268.834 123.85c-8.32 8.32-20.229 19.401-29.757 29.308 1.139-28.1 29.757-29.308 29.757-29.308zm0 387.74c75.29 227.286 256.353 283.418 256.353 283.418s-102.148 32.864-235.399 41.667C184.016 843.648 41.547 821.21 41.547 821.21S4.61 427.981 231.275 161.686c2.244-2.658 4.971-5.558 7.836-8.527 0 .207-.069.311-.069.518-2.002 74.496-13.36 227.666 29.792 357.914zm713.273-341.724c-10.494 109.949-41.529 222.281-41.529 222.281s-61.413-161.869-254.144-238.471C546.175 97.89 378.679 92.021 299.419 94.024c265.501-224.939 666.808-197.46 666.808-197.46s26.719 159.694 15.88 273.303zM268.834 123.85s-1.07-29.032 29.826-29.826h.759c-1.484 1.277-3.038 2.416-4.522 3.694-11.219 9.631-15.431 15.431-26.063 26.132zm-4.039 10.736s345.97-53.784 551.404 150.65 149.994 535.973 149.994 535.973-363.506 47.743-550.023-137.877c-186.517-185.62-151.375-548.746-151.375-548.746z"/><glyph unicode="" glyph-name="rss" d="M190.242 467.456h-.093c-34.055 0-61.663-27.607-61.663-61.663 0-34.023 27.554-61.61 61.565-61.663h.005c164.592-.254 298.297-134.349 298.06-298.941v-.093c0-34.06 27.611-61.671 61.671-61.671 34.027 0 61.618 27.558 61.671 61.573v.005c.339 232.613-188.62 422.113-421.216 422.452zm.44 315.179h-.119c-34.023 0-61.608-27.567-61.637-61.584v-.003-.102c0-34.023 27.567-61.608 61.584-61.637h.003c338.395-.491 613.291-276.216 612.799-614.594v-.102c0-34.027 27.565-61.616 61.583-61.654h.106c34.021 0 61.606 27.555 61.654 61.565v.005c.61 406.399-329.573 737.513-735.972 738.106zM97.464 61.564c0-59.722 48.414-108.136 108.136-108.136S313.736 1.842 313.736 61.564c0 59.722-48.414 108.136-108.136 108.136S97.464 121.286 97.464 61.564z"/><glyph unicode="" glyph-name="project" d="M512.003 881.103L35.61 528.984l476.393-352.11 476.387 352.11zm441.548-471.352L512 83.382 70.451 409.751 35.61 383.998 512 31.884l476.385 352.121zm0-144.987L512-61.605 70.451 264.762 35.61 239.011 512-113.103l476.385 352.121z"/><glyph unicode="" glyph-name="weibo" d="M742.794 394.319c-37.303 7.258-19.153 27.395-19.153 27.395s36.499 60.337-7.226 104.204c-54.22 54.329-185.941-6.912-185.941-6.912-50.319-15.652-36.959 7.143-29.848 45.936 0 45.706-15.627 123.061-149.64 77.37-133.871-45.937-248.847-206.886-248.847-206.886-79.939-106.951-69.33-189.609-69.33-189.609C52.764 63.338 246.159 13.246 396.574 1.39c158.243-12.447 371.851 54.69 436.594 192.613 64.77 138.152-52.928 192.829-90.374 200.316zM408.303 52.845c-157.125-7.359-284.115 71.62-284.115 176.731 0 105.224 126.99 189.609 284.115 196.868 157.183 7.258 284.429-57.68 284.429-162.687 0-105.097-127.247-203.754-284.429-210.912zm-31.369 304.291c-157.983-18.541-139.748-166.927-139.748-166.927s-1.606-46.986 42.378-70.918c92.439-50.205 187.631-19.805 235.743 42.459 48.112 62.294 19.898 213.798-138.374 195.386zm-39.853-208.265c-29.475-3.465-53.273 13.582-53.273 38.333 0 24.636 21.131 50.435 50.635 53.526 33.89 3.233 55.969-16.343 55.969-41.093 0-24.636-23.913-47.417-53.331-50.766zm93.155 79.555c-10.006-7.488-22.278-6.453-27.555 2.532-5.504 8.751-3.44 22.795 6.653 30.167 11.697 8.741 23.883 6.223 29.159-2.543 5.305-8.969 1.521-22.437-8.257-30.156zm389.516 230.141c12.729 0 23.567 9.443 25.374 21.761.23.92.345 1.724.345 2.76 19.296 173.957-142.187 144.017-142.187 144.017-14.335 0-25.806-11.628-25.806-26.13 0-14.273 11.47-25.901 25.806-25.901 116.009 25.671 90.406-90.608 90.406-90.608-.001-14.387 11.668-25.899 26.063-25.899zm-18.811 303.63c-55.855 13.109-113.255 1.811-129.341-1.279-1.233-.116-2.41-1.294-3.556-1.524-.545-.116-.889-.69-.889-.69-15.886-4.499-27.47-19.217-27.47-36.609 0-20.726 16.745-37.772 37.676-37.772 0 0 20.3 2.73 34.09 8.135 13.676 5.52 129.283 4.111 186.743-92.591 31.311-70.571 13.762-117.801 11.584-125.39 0 0-7.455-18.341-7.455-36.392 0-20.843 16.744-33.936 37.502-33.936 17.376 0 31.941 2.373 36.214 31.807h.23c61.677 206.052-75.436 302.87-175.329 326.239z"/><glyph unicode="" glyph-name="bitbucket" d="M575.429 405.143q4.571-36-28.857-57.714T482.858 344q-22.286 9.714-30.571 33.143T455.144 424t29.714 33.143q20.571 10.286 41.429 6.857t36.571-20.286 15.714-38.571zm63.428 12q-8 61.143-64.571 93.714t-112.571 7.429q-36-16-57.429-50.571t-19.714-74q2.286-52 44.286-88.571t94.571-32q52 4.571 86.857 48t28.571 96zm136.572 309.714q-11.429 15.429-32 25.429t-33.143 12.571T669.715 772q-166.286 26.857-323.429-1.143-24.571-4-37.714-6.857t-31.429-12.571-28.571-24.571q17.143-16 43.429-26t42-12.571 50-6.571q130.286-16.571 256-.571 36 4.571 51.143 6.857t41.429 12.286 42.857 26.571zM808 135.429q-4.571-14.857-8.857-43.714t-8-48-16.286-40-33.143-32.286Q692.571-56 633.428-69.428T517.999-81.999 402.856-71.428q-26.286 4.571-46.571 10.286t-43.714 15.429-41.714 24.857-29.714 35.143q-14.286 54.857-32.571 166.857l3.429 9.143 10.286 5.143q127.429-84.571 289.429-84.571t290 84.571q12-3.429 13.714-13.143t-2.857-25.714-4.571-21.143zm103.429 549.142Q896.572 589.142 848 310.285q-2.857-17.143-15.429-32t-24.857-22.857-31.143-17.714q-144-72-348.571-50.286-141.714 15.429-225.143 79.429-8.571 6.857-14.571 15.143t-9.714 20-5.143 19.429T170 344t-3.143 20q-5.143 28.571-15.143 85.714t-16 92.286-13.429 84.286-12.571 90.286q1.714 14.857 10 27.714t18 21.429 25.714 17.143 26.286 12.857 27.429 10.571Q288.572 832.572 396 842.857 612.571 864 782.286 814.286 870.857 788 905.143 744.572q9.143-11.429 9.429-29.143t-3.143-30.857z"/><glyph unicode="" glyph-name="eye-fill" d="M512 675.271C325.632 675.271 180.452 564.224 2.276 384 155.648 229.945 284.445 92.729 512 92.729c227.328 0 394.581 173.852 509.724 288.085C903.85 514.617 736.824 675.271 512 675.271zm0-499.029c-112.412 0-203.89 93.298-203.89 207.758 0 114.688 91.477 207.758 203.89 207.758S715.89 498.46 715.89 384c0-114.688-91.477-207.758-203.89-207.758zm0 280.576c0 17.977 6.599 34.361 17.294 47.104A108.613 108.613 0 0 1 512 505.287c-65.536 0-119.012-54.386-119.012-121.287S446.464 262.713 512 262.713 631.012 317.099 631.012 384c0 5.234-.455 10.468-.91 15.701C617.586 389.916 602.113 384 585.046 384c-40.505 0-73.045 32.54-73.045 72.818z"/><glyph unicode="" glyph-name="eye" d="M974.279 319.033c22.187 28.103 34.247 45.966 38.457 52.338l8.306 12.743-8.306 12.743c-4.096 6.372-16.156 24.121-38.457 52.224-32.54 41.188-67.698 79.417-104.334 113.664-119.239 111.502-239.616 167.936-357.831 167.936s-238.592-56.548-357.831-167.936c-36.75-34.361-71.794-72.59-104.334-113.664-22.3-28.103-34.247-45.966-38.457-52.224l-8.306-12.743 8.306-12.743c4.096-6.372 16.156-24.235 38.457-52.338 32.54-41.188 67.698-79.417 104.334-113.778C273.522 93.753 393.899 37.205 512.114 37.205s238.592 56.548 357.831 168.05c36.636 34.361 71.794 72.59 104.334 113.778zm-136.306-79.645C727.609 136.305 618.041 83.968 512 83.968s-215.609 52.338-325.973 155.42c-35.044 32.768-68.494 69.291-99.669 108.658-4.892 6.258-8.306 10.354-10.581 13.312-6.258 7.851-6.599 8.192-11.036 15.132l-5.006 7.737 5.006 7.737c3.982 6.03 4.892 7.282 8.988 12.288 2.389 2.958 6.144 7.509 12.743 15.815 31.061 39.367 64.626 75.89 99.669 108.544 110.251 103.083 219.932 155.307 325.973 155.307s215.609-52.224 325.973-155.307c35.044-32.768 68.494-69.291 99.669-108.544 4.096-5.12 7.054-8.875 9.33-11.719 7.054-8.761 7.282-9.102 11.605-15.701L964.38 384l-5.006-7.737c-4.437-6.827-4.779-7.282-10.695-14.677-2.389-2.958-5.689-7.168-10.809-13.54-31.403-39.367-64.967-75.89-99.897-108.658zM649.216 377.856c-11.264-5.234-23.666-7.964-36.181-7.964-49.493 0-89.884 42.212-89.884 94.208 0 23.211 8.078 44.942 22.3 61.554a130.72 130.72 0 0 1-33.337 4.324c-75.662 0-137.216-65.422-137.216-145.863s61.554-145.863 137.216-145.863c73.728-.114 134.03 62.009 137.102 139.605z"/><glyph unicode="" glyph-name="number" d="M887.467 786.773H136.534c-52.565 0-95.573-43.008-95.573-95.573v-512c0-52.565 43.008-95.573 95.573-95.573h227.328L468.31-20.821c12.288-12.288 27.989-17.749 43.691-17.749s31.403 6.144 43.691 17.749L660.14 83.627h227.328c52.565 0 95.573 43.008 95.573 95.573v512c0 52.565-43.008 95.573-95.573 95.573zm40.96-607.573c0-22.528-18.432-40.96-40.96-40.96H636.928L516.779 18.091c-2.731-2.731-6.827-2.731-9.557 0L387.073 138.24H136.534c-22.528 0-40.96 18.432-40.96 40.96v512c0 22.528 18.432 40.96 40.96 40.96h750.933c22.528 0 40.96-18.432 40.96-40.96v-512zm-307.2 151.552l-215.04 292.181H348.16V247.466h54.613v288.085L614.4 247.466h61.44v375.467h-54.613z"/><glyph unicode="" glyph-name="book-fill" d="M966.646 727.549c-1.702.249-17.528 2.435-45.737 2.435-52.727 0-145.889-7.854-265.48-49.035 122.85 69.574 248.633 75.922 250.348 75.922 10.332.43 18.545 8.91 18.545 19.308 0 10.672-8.651 19.324-19.324 19.324-.274 0-.547-.006-.818-.017l.039.001c-7.998-.327-156.688-7.488-294.265-96.448 104.04 97.115 256.199 126.542 258.202 126.974 9.053 1.739 15.799 9.597 15.799 19.03 0 1.227-.114 2.428-.333 3.592l.019-.12c-2.395 12.972-25.513 14.923-22.476 15.486-11.087-2.042-255.008-48.996-349.282-229.011-94.471 179.596-337.946 226.511-348.994 228.566-.773.11-1.666.172-2.573.172-10.671 0-19.321-8.65-19.321-19.321 0-9.109 6.303-16.745 14.785-18.786l.132-.027c2.029-.38 154.463-29.688 258.49-127.144-137.681 89.091-286.607 96.291-294.605 96.605-.23.01-.501.015-.772.015-10.672 0-19.323-8.651-19.323-19.323 0-10.4 8.217-18.882 18.512-19.307l.038-.001c1.728-.079 127.681-6.192 250.727-76.066-119.761 41.26-213.041 49.166-265.82 49.166-28.209 0-44.061-2.212-45.815-2.461-14.099-2.135-24.781-14.169-24.781-28.698 0-.758.029-1.51.086-2.254l-.006.099L80.775 54.131c1.146-14.695 13.078-26.259 27.828-26.82l.054-.002C347.119 18.761 492.981-89.075 494.421-90.135c4.8-3.66 10.883-5.865 17.48-5.865 4.696 0 9.132 1.117 13.055 3.1l-.166-.076c2.61 1.31 4.855 2.886 6.836 4.74l-.016-.015C549.635-75.423 690.746 19.742 915.372 27.753c14.797.562 26.722 12.121 27.862 26.708l.006.1 48.106 642.107c.052.65.081 1.406.081 2.17 0 14.532-10.681 26.569-24.621 28.689l-.161.02zM541.114-14.03h-58.251v583.424h58.251z"/><glyph unicode="" glyph-name="voice" d="M512.771 852.496L278.364 617.985H112.225c-43.171 0-78.18-35.011-78.18-78.18V227.112c0-43.206 35.01-78.18 78.18-78.18h166.134L512.772-85.645c43.164 0 78.144 35.01 78.144 78.18v781.781c-.001 43.171-34.976 78.18-78.146 78.18zm0-857.252L307.642 221.562H112.225v312.687h195.417l205.129 226.352V-4.755zm463.31 353.894c7.717 0 13.958 15.359 13.958 34.29 0 18.926-6.241 34.29-13.958 34.29h-97.757c-7.723 0-13.964-15.359-13.964-34.29s6.241-34.29 13.964-34.29h97.757zm10.595 443.152c6.689 3.859 4.413 20.285-5.053 36.677-9.46 16.391-22.549 26.573-29.238 22.715l-84.659-48.878c-6.686-3.859-4.408-20.285 5.053-36.677 9.465-16.391 22.552-26.573 29.241-22.714l84.655 48.877zm0-817.724c6.689-3.864 4.413-20.285-5.053-36.677-9.46-16.391-22.549-26.578-29.238-22.714l-84.659 48.872c-6.686 3.864-4.408 20.286 5.053 36.677 9.465 16.391 22.552 26.579 29.241 22.715l84.655-48.873zM645.923 207.778c-6.972 18.764-5.047 36.562 13.717 43.533 47.386 21.873 70.005 64.439 75.789 117.83 6.745 62.293-23.067 119.537-74.528 143.117-16.836 10.826-23.802 29.586-12.977 46.421 10.831 16.829 29.591 23.802 46.419 12.976 76.232-44.269 121.91-121.241 112.274-210.228-7.718-71.188-51.02-138.523-117.166-167.368-15.459-8.75-36.183-3.007-43.529 13.712v.005zm0 0"/><glyph unicode="" glyph-name="wechat" d="M682.258 538.723c11.061 0 21.997-.87 32.809-1.988-29.453 137.2-176.099 239.106-343.622 239.106-187.159 0-340.515-127.631-340.515-289.562 0-93.455 50.953-170.258 136.206-229.91l-34.052-102.403 119.056 59.652c42.627-8.451 76.802-17.15 119.305-17.15 10.688 0 21.251.497 31.815 1.367-6.711 22.742-10.563 46.603-10.563 71.334.124 148.882 127.755 269.554 289.562 269.554zM499.2 631.06c25.601 0 42.627-16.901 42.627-42.502 0-25.477-17.026-42.627-42.627-42.627-25.477 0-51.077 17.15-51.077 42.627-.124 25.601 25.477 42.502 51.077 42.502zm-238.361-85.129c-25.477 0-51.326 17.15-51.326 42.627 0 25.601 25.725 42.502 51.326 42.502 25.477 0 42.502-16.901 42.502-42.502s-16.901-42.627-42.502-42.627zM992.947 273.27c0 136.082-136.206 247.06-289.189 247.06-162.055 0-289.562-110.978-289.562-247.06 0-136.33 127.631-247.06 289.562-247.06 33.927 0 68.103 8.575 102.155 17.15l93.331-51.202-25.601 85.129c68.476 51.202 119.305 119.305 119.305 195.983zm-383.018 42.627c-16.901 0-34.052 16.901-34.052 34.052 0 17.026 17.15 34.052 34.052 34.052 25.725 0 42.627-17.026 42.627-34.052 0-17.15-16.901-34.052-42.627-34.052zm187.284 0c-16.901 0-33.803 16.901-33.803 34.052 0 17.026 17.026 34.052 33.803 34.052 25.477 0 42.627-17.026 42.627-34.052 0-17.15-17.15-34.052-42.627-34.052z"/><glyph unicode="" glyph-name="home" d="M981.445 411.379L554.57 842.573s-16.933 20.134-42.751 20.134c-27.987 0-42.706-20.146-42.706-20.146L42.24 411.33c-11.816-11.915-11.816-31.217 0-43.14 11.742-11.886 28.356-2.78 40.144 9.092l28.627 28.952 402.037 398.5L941.3 373.907c11.74-7.757 29.882-16.083 40.144-5.69 11.816 11.897 11.816 31.226.001 43.161zm-153.49 19.846c-13.118 0-23.804-10.726-23.849-23.975v-.048V5.034c0-26.642-21.39-48.228-47.701-48.228H650.317v232.582c0 50.579-40.539 91.554-90.628 91.554h-95.695c-50.089 0-90.628-40.975-90.628-91.554V-43.194H267.282c-26.311 0-47.7 21.585-47.7 48.228v402.142c-.024 13.296-10.708 24.046-23.826 24.046-13.167 0-23.828-10.753-23.876-24.046V.197c0-50.592 40.562-91.567 90.625-91.567h158.538v275.939c0 26.628 21.388 48.2 47.701 48.2h86.198c26.312 0 47.702-21.575 47.702-48.2V-91.37H761.18c50.063 0 90.627 40.975 90.627 91.569v407.05c-.076 13.247-10.708 23.975-23.851 23.975z"/><glyph unicode="" glyph-name="email" d="M129.319 756.148h762.415c52.065 0 94.633-41.04 95.288-91.577L510.799 405.885 34.467 664.353c.437 50.646 42.678 91.795 94.852 91.795zM34.468 565.353l-.437-457.667c0-50.973 42.896-92.669 95.288-92.669h762.415c52.392 0 95.288 41.695 95.288 92.669v457.885l-465.089-246.68a24.137 24.137 0 0 0-22.812 0L34.468 565.352zm0 0"/><glyph unicode="" glyph-name="time" d="M512 749.838c-202.035 0-365.893-163.853-365.893-365.893 0-202.034 163.858-365.892 365.893-365.892s365.892 163.859 365.892 365.892c0 202.039-163.858 365.893-365.892 365.893zM793.575 358.39c0-11.352-9.011-20.362-20.252-20.362H508.499v-20.47c0-11.132-9.12-20.258-20.361-20.258-11.346 0-20.362 9.016-20.362 20.258v20.47h-20.47c-11.132 0-20.252 9.12-20.252 20.362 0 11.345 9.011 20.361 20.252 20.361h20.47v264.824c0 11.134 9.12 20.252 20.362 20.252 11.345 0 20.361-9.016 20.361-20.252V378.752h264.823c11.135 0 20.253-9.12 20.253-20.362zM512 858.442c-261.96 0-474.387-212.427-474.387-474.387S249.937-90.44 512-90.44s474.387 212.432 474.387 474.387c0 261.96-212.429 474.495-474.387 474.495zM824.44 71.506c-40.621-40.614-87.812-72.43-140.415-94.704-54.41-23.013-112.317-34.68-172.025-34.68s-117.51 11.667-172.025 34.68C287.371-.925 240.072 30.892 199.56 71.506c-40.619 40.621-72.436 87.819-94.71 140.421-23.014 54.405-34.68 112.312-34.68 172.019 0 59.714 11.666 117.51 34.68 172.025 22.274 52.604 54.09 99.903 94.71 140.421 40.62 40.511 87.811 72.43 140.415 94.704C394.489 814.11 452.292 825.884 512 825.884s117.509-11.666 172.025-34.68c52.603-22.274 99.903-54.09 140.415-94.71s72.436-87.811 94.708-140.415c23.013-54.514 34.68-112.421 34.68-172.134 0-59.708-11.667-117.506-34.68-172.019-22.273-52.602-54.088-99.902-94.708-140.419zm0 0"/><glyph unicode="" glyph-name="share" d="M774.653 522.972c-49.962 0-93.963 25.135-120.413 63.32L329.767 414.499c3.288-12.167 5.59-24.724 5.59-37.959 0-13.215-2.302-25.772-5.59-37.939L654.24 166.808c26.45 38.206 70.472 63.3 120.413 63.3 80.872 0 146.432-65.519 146.432-146.391S855.525-62.715 774.653-62.715c-80.892 0-146.432 65.54-146.432 146.432 0 1.398.37 2.692.411 4.049l-341.51 180.836c-26.019-23.635-60.258-38.494-98.197-38.494-80.851 0-146.432 65.581-146.432 146.432 0 80.892 65.56 146.432 146.432 146.432 37.939 0 72.199-14.797 98.197-38.473l341.51 180.815c-.041 1.377-.411 2.672-.411 4.09 0 80.872 65.54 146.432 146.432 146.432 80.872 0 146.432-65.56 146.432-146.432 0-80.892-65.56-146.432-146.432-146.432zm0-521.072c45.152 0 81.776 36.623 81.776 81.776s-36.623 81.776-81.776 81.776c-45.173 0-81.776-36.623-81.776-81.776S729.48 1.9 774.653 1.9zm-589.16 456.415c-45.173 0-81.796-36.623-81.796-81.796 0-45.152 36.623-81.776 81.796-81.776s81.776 36.623 81.776 81.776c.021 45.173-36.603 81.796-81.776 81.796zm589.16 292.864c-45.173 0-81.776-36.623-81.776-81.776 0-45.173 36.603-81.796 81.776-81.796 45.152 0 81.776 36.623 81.776 81.796 0 45.152-36.623 81.776-81.776 81.776z"/><glyph unicode="" glyph-name="file" d="M634.88 520.533H921.6V-46.08c0-27.307-20.48-54.613-54.613-54.613H157.014c-34.133 6.827-54.613 27.307-54.613 54.613v853.333c0 34.133 20.48 54.613 54.613 54.613h423.253V568.319c0-27.307 20.48-47.787 54.613-47.787zm13.653 320.854c6.827-6.827 13.653-6.827 20.48-13.653l218.453-218.453c6.827-6.827 6.827-13.653 13.653-20.48H648.532v252.587z"/><glyph unicode="" glyph-name="jiaju" d="M327.107-57.684H202.69V47.231h53.118V-4.567h42.314l51.101 79.401 44.662-28.744zm494.811 0H697.333L634.003 42.89l44.948 28.302 47.703-75.76H768.8V47.23h53.118zM150.592 210.487c-64.14 0-116.317 52.18-116.317 116.321 0 64.137 52.177 116.317 116.317 116.317s116.324-52.18 116.324-116.317c0-64.14-52.184-116.321-116.324-116.321zm0 179.52c-34.851 0-63.2-28.351-63.2-63.2 0-34.851 28.348-63.204 63.2-63.204s63.207 28.351 63.207 63.204c-.001 34.849-28.356 63.2-63.207 63.2zm723.425-179.52c-64.14 0-116.324 52.18-116.324 116.321 0 64.137 52.184 116.317 116.324 116.317s116.317-52.18 116.317-116.317c0-64.14-52.177-116.321-116.317-116.321zm0 179.52c-34.851 0-63.206-28.351-63.206-63.2 0-34.851 28.355-63.204 63.206-63.204s63.2 28.351 63.2 63.204c0 34.849-28.348 63.2-63.2 63.2zm-18.681 13.954h-53.117v223.923c0 36.755-29.905 66.66-66.656 66.66H289.046c-36.752 0-66.656-29.905-66.656-66.66V403.961h-53.117v223.923c0 66.046 53.727 119.776 119.773 119.776h446.517c66.046 0 119.773-53.73 119.773-119.776V403.961zm43.632-370.058H125.641c-14.667 0-26.559 11.892-26.559 26.559v164.394c0 14.667 11.892 26.559 26.559 26.559h773.327c14.667 0 26.559-11.892 26.559-26.559V60.462c0-14.667-11.892-26.559-26.559-26.559zM152.2 87.021h720.209v111.276H152.2V87.021zm445.608 453.588h56.375v-56.375h-56.375v56.375zm-227.382 0H426.8v-56.375h-56.374v56.375z"/><glyph unicode="" glyph-name="code-fork" d="M376.073 34.475q0 24.273-16.991 41.263t-41.263 16.991-41.263-16.991-16.991-41.263 16.991-41.263 41.263-16.991 41.263 16.991 16.991 41.263zm0 699.05q0 24.273-16.991 41.263t-41.263 16.991-41.263-16.991-16.991-41.263 16.991-41.263 41.263-16.991 41.263 16.991 16.991 41.263zm388.362-77.672q0 24.273-16.991 41.263t-41.263 16.991-41.263-16.991-16.991-41.263 16.991-41.263 41.263-16.991 41.263 16.991 16.991 41.263zm58.254 0q0-31.554-15.777-58.558t-42.477-42.174q-1.214-174.156-137.14-251.221-41.263-23.059-123.183-49.152-77.672-24.273-102.855-43.084t-25.183-60.681v-15.777q26.7-15.17 42.477-42.174t15.777-58.558q0-48.545-33.982-82.527t-82.527-33.982-82.527 33.982-33.982 82.527q0 31.554 15.777 58.558t42.477 42.174v497.588q-26.7 15.17-42.477 42.174t-15.777 58.558q0 48.545 33.982 82.527t82.527 33.982 82.527-33.982 33.982-82.527q0-31.554-15.777-58.558t-42.477-42.174V331.207q32.768 15.777 93.449 34.588 33.375 10.316 53.096 17.901t42.78 18.811 35.802 23.969 24.576 30.948 16.991 42.174 5.158 55.524q-26.7 15.17-42.477 42.174t-15.777 58.558q0 48.545 33.982 82.527t82.527 33.982 82.527-33.982 33.982-82.527z"/><glyph unicode="" glyph-name="behance" d="M301.625 697.458c29.468 0 56.092-2.503 80.327-7.851 24.235-5.12 44.715-13.653 62.123-25.372 17.18-11.719 30.492-27.42 40.277-46.876 9.33-19.342 14.108-43.577 14.108-72.363 0-31.061-7.054-56.889-21.163-77.596-14.222-20.708-35.044-37.547-62.692-50.859 37.888-10.923 65.877-30.037 84.651-57.23 18.773-27.42 27.762-60.188 27.762-98.873 0-31.289-6.03-58.027-17.977-80.668-11.605-22.187-28.217-41.301-48.697-55.751-20.366-14.45-43.804-25.031-69.973-31.858-25.941-6.827-52.793-10.354-80.555-10.354H11.377v615.538l290.247.114zM284.103 448.74c24.007 0 43.918 5.689 59.62 17.18 15.588 11.378 23.097 30.151 23.097 55.865 0 14.222-2.503 26.169-7.623 35.385-4.892 8.875-12.174 16.384-20.935 21.504-9.216 5.461-19.342 9.102-29.924 10.809a178.466 178.466 0 0 1-34.816 3.072H146.887V448.74h137.216zm7.396-261.917c13.312 0 25.941 1.138 37.888 3.868 12.06 2.731 22.869 6.827 31.858 13.084 8.988 6.03 16.612 14.108 22.073 24.69 5.461 10.354 7.964 23.666 7.964 39.822 0 31.63-8.988 54.386-26.738 68.039-17.749 13.426-41.415 20.139-70.77 20.139H146.887V186.936l144.612-.114zm428.601 2.162c18.318-17.977 44.715-26.965 79.189-26.965 24.69 0 46.08 6.258 63.943 18.773 17.749 12.516 28.558 25.828 32.654 39.481h107.861c-17.408-53.817-43.577-91.932-79.531-114.916-35.385-23.097-78.734-34.816-129.024-34.816-35.157 0-66.674 5.689-95.004 16.839-27.193 10.581-51.655 26.965-71.908 47.9-19.911 21.504-35.385 46.763-45.397 74.297-10.581 28.786-16.043 60.644-16.043 95.004-.341 31.858 5.234 63.374 16.384 93.184 11.15 28.9 26.396 53.817 46.763 74.638 20.366 20.935 44.146 37.547 72.363 49.721 27.989 12.06 58.823 18.204 93.07 18.204 37.774 0 70.77-7.282 99.1-22.073 28.103-14.677 51.428-34.361 69.632-59.051 18.204-24.576 31.061-53.02 39.14-84.651 8.078-32.427 10.923-65.991 8.647-99.328H689.948c-.114-35.044 11.605-68.494 30.151-86.244zm140.515 234.041c-14.45 16.043-39.253 24.804-69.177 24.804-19.57 0-35.726-3.3-48.697-10.012a99.099 99.099 0 0 1-31.061-24.576c-7.851-9.785-13.312-20.366-16.384-31.516-3.072-10.809-5.12-20.708-5.689-29.355h199.339c-2.958 31.403-13.653 54.386-28.331 70.656zM664.462 647.737H914.09V586.98H664.462v60.757z"/><glyph unicode="" glyph-name="gitlab" d="M89.6 452.107L512-94.346 49.067 244.801c-6.4 4.64-10.827 10.88-13.333 18.56-2.507 7.733-2.507 15.36 0 22.88l53.867 165.867zm246.4 0h352L512-94.346 336 452.107zm-105.6 329.44L336 452.054H89.6l105.6 329.493c2.827 8.267 8.693 12.373 17.6 12.373s14.773-4.107 17.6-12.373zm704-329.44l53.867-165.813c2.507-7.52 2.507-15.147 0-22.88s-6.933-13.92-13.333-18.56L512.001-94.293l422.4 546.4zm0 0H688L793.6 781.6c2.827 8.267 8.693 12.373 17.6 12.373s14.773-4.107 17.6-12.373l105.6-329.493z"/><glyph unicode="" glyph-name="phone" d="M911.929 199.856c-91.373 57.534-105.296 65.56-137.443 60.479-32.15-5.073-41.701-11.973-87.968-76.969-6.538-7.983-68.614-104.042-291.387 109.954C231.8 461.732 280.165 522.845 311.069 562.455c26.874 25.096 57.019 36.228 61.48 81.069 1.927 20.647-.735 62.959-68.543 155.899-45.442 66.374-54.479 71.689-84.811 72.301-30.332.602-78.674-14.414-128.369-54.479-49.147-33.02-64.307-71.722-69.552-117.08-5.537-57.181-16.444-250.748 228.847-521.05C495.415-91.191 812.467-149.307 922.952-72.613c47.599 33.778 86.488 108.888 88.165 157.229 5.966 33.349-7.815 57.716-99.188 115.24z"/><glyph unicode="" glyph-name="social-media" d="M512.415 830.169c-247.223 0-447.631-200.408-447.631-447.631S265.192-65.093 512.415-65.093c247.222 0 447.631 200.408 447.631 447.631S759.637 830.169 512.415 830.169zm223.319-107.635c.138-4.829.497-9.598.497-14.446 0-42.324-4.491-83.573-12.696-123.453-27.601-5.842-48.344-30.321-48.344-59.669 0-16.632 6.675-31.654 17.466-42.662-13.334-33.402-29.229-65.491-47.965-95.673-75.963 86.275-128.381 193.812-145.985 312.932 46.436 28.512 97.182 50.448 150.734 65.748 30.598-10.969 59.588-25.215 86.293-42.778zm-85.699-400.579c35.725-34.635 75.843-64.558 118.783-90.271-43.636-7.689-88.462-11.92-134.321-11.92-20.685 0-41.111 1.034-61.379 2.643-.218 3.934-.597 7.809-1.49 11.524 28.691 26.883 54.979 56.291 78.407 88.024zm-137.62 467.52c22.691 0 44.787-2.326 66.444-5.9-29.287-11.446-57.94-24.162-84.924-39.662-1.072 14.725-1.789 29.548-1.827 44.529 6.775.338 13.45 1.034 20.306 1.034zm108.926-437.636c-21.598-29.983-46.139-57.643-72.704-83.196-10.153 7.551-22.594 12.162-36.223 12.162-26.268 0-48.463-16.691-57.068-39.939-81.587 19.374-158.164 51.601-227.431 94.562 18.359 69.246 48.245 133.803 88.043 191.089 4.311-.955 8.743-1.55 13.334-1.55 33.7 0 61.04 27.321 61.04 61.04 0 8.425-1.709 16.472-4.809 23.784 23.566 23.627 48.959 45.443 76.122 64.996 21.917-123.254 78.904-234.11 159.695-322.948zM166.994 168.141c-37.414 60.165-59.728 130.625-61.238 206.329a815.284 815.284 0 0 1 75.804-57.543c-9.639-44.47-15.042-90.509-15.042-137.858-.001-3.695.395-7.273.475-10.929zm25.236 190.831a777.047 777.047 0 0 0-84.089 67.975c19.989 183.579 162.02 330.181 343.371 357.483.179-21.76 1.351-43.278 3.597-64.48-35.051-23.545-67.558-50.55-97.324-80.274-8.544 4.55-18.141 7.372-28.493 7.372-33.698 0-61.04-27.341-61.04-61.04 0-14.306 5.128-27.261 13.353-37.674-39.463-57.148-69.666-121.009-89.376-189.362zm19.234-249.666c-2.623 22.911-4.253 46.139-4.253 69.764 0 39.204 4.132 77.393 11.206 114.53 72.445-43.197 152.124-75.467 236.849-94.522.397-1.113.597-2.326 1.072-3.397-71.411-46.118-152.799-78.128-240.585-91.103-1.429 1.547-2.859 3.157-4.29 4.728zM512.415-24.399c-99.232 0-190.116 35.607-260.735 94.641 84.688 16.632 163.332 49.734 232.878 95.494 8.385-4.332 17.763-7.014 27.857-7.014 19.591 0 36.838 9.398 48.026 23.765 24.4-2.206 49.079-3.418 74.055-3.418 65.392 0 128.756 8.346 189.679 22.931 14.027-6.678 28.036-13.433 42.6-19.137C796.953 59.213 664.54-24.401 512.415-24.401zM828.606 244.6c-57.503 28.951-109.9 66.524-155.204 111.411 21.977 34.098 40.614 70.518 55.954 108.589 2.285-.238 4.531-.675 6.876-.675 33.7 0 61.04 27.321 61.04 61.04 0 23.883-13.85 44.33-33.84 54.364 7.333 36.562 11.942 74.115 12.896 112.604 87.428-74.632 143.024-185.447 143.024-309.396 0-39.939-6.2-78.307-16.969-114.73-24.084-8.902-48.662-16.69-73.777-23.208z"/><glyph unicode="" glyph-name="archives-fill" d="M789.44 591.476H232.049c-10.987 0-19.883-9.195-19.883-20.481 0-11.289 8.896-20.427 19.883-20.427H789.44c10.989 0 19.883 9.199 19.883 20.427s-8.894 20.481-19.883 20.481zm19.883 103.607H212.166c-11.047 0-19.947-9.135-19.947-20.42 0-11.287 8.9-20.362 19.947-20.362h597.157c11.049 0 19.947 9.074 19.947 20.421 0 11.227-8.897 20.361-19.947 20.361zm168.64-213.067l-78.524 293.507c-.19.79-.416 1.466-.692 2.116l.033-.087c-12.364 32.306-30.398 53.805-78.347 53.805l-620.691-1.73c-39.771 0-63.119-16.064-78.164-53.506-.3-.837-.599-1.677-.779-2.449l-77.87-299.716c-6.029-5.914-9.913-13.378-9.913-22.032V-17.744c0-22.454 26.215-44.188 48.073-44.188h875.915c21.856 0 31.468 21.733 31.468 44.188v469.668c0 13.077-3.405 23.587-10.509 30.093zM749.61 150.417H271.88v119.431h477.731V150.417zm-59.719 298.58s-42.219-.541-63.059-.541H404.629c-20.841 0-73.028.541-73.028.541H92.735L158.9 761.786c8.122 19.887 15.824 26.933 40.902 26.933l620.749 1.789c27.588 0 33.143-7.044 40.847-26.871l67.357-314.639-238.864-.001zm0 0"/><glyph unicode="" glyph-name="target" d="M512 520.533c-75.298 0-136.533-61.235-136.533-136.533S436.702 247.467 512 247.467 648.533 308.702 648.533 384 587.298 520.533 512 520.533zm0-204.8c-37.649 0-68.267 30.618-68.267 68.267s30.618 68.267 68.267 68.267 68.267-30.618 68.267-68.267-30.618-68.267-68.267-68.267zm443.733 102.4h-.99c-16.691 217.839-190.771 391.919-408.61 408.61v.99c0 18.842-15.292 34.133-34.133 34.133s-34.133-15.292-34.133-34.133v-.99c-217.839-16.691-391.919-190.771-408.61-408.61h-.99c-18.842 0-34.133-15.292-34.133-34.133s15.292-34.133 34.133-34.133h.99c16.691-217.839 190.771-391.919 408.61-408.61v-.99c0-18.876 15.292-34.133 34.133-34.133s34.133 15.258 34.133 34.133v.99c217.839 16.691 391.919 190.771 408.61 408.61h.99c18.876 0 34.133 15.292 34.133 34.133s-15.258 34.133-34.133 34.133zm-409.6-408.61V76.8c0 18.876-15.292 34.133-34.133 34.133S477.867 95.675 477.867 76.8V9.523C297.643 25.839 153.839 169.677 137.524 349.866h67.277c18.842 0 34.133 15.292 34.133 34.133s-15.292 34.133-34.133 34.133h-67.277C153.84 598.356 297.643 742.16 477.867 758.475v-67.277c0-18.842 15.292-34.133 34.133-34.133s34.133 15.292 34.133 34.133v67.277c180.19-16.316 324.028-160.119 340.343-340.343h-67.277c-18.876 0-34.133-15.292-34.133-34.133s15.258-34.133 34.133-34.133h67.277C870.16 169.676 726.322 25.838 546.133 9.523z"/><glyph unicode="" glyph-name="pinterest" d="M133.097 530.913c0-95.184 36.607-179.384 115.321-210.503 12.815-5.492 23.795 0 27.457 14.643 1.831 9.151 9.151 34.778 10.983 43.93 3.663 14.643 1.831 18.307-7.32 31.116-21.965 25.626-36.607 60.405-36.607 107.997 0 139.114 106.165 265.417 276.396 265.417 150.098 0 232.467-91.524 232.467-212.333 0-159.248-71.386-292.874-177.552-292.874-58.576 0-102.507 47.591-87.861 106.165 16.473 69.557 49.422 144.606 49.422 195.859 0 45.761-23.795 82.371-75.05 82.371-60.405 0-107.997-60.405-107.997-142.775 0-51.251 18.307-87.861 18.307-87.861s-62.236-256.262-71.386-300.192c-21.965-89.692-3.663-199.52-1.831-210.503 1.831-7.32 9.151-7.32 12.815-3.663 5.492 7.32 76.879 93.354 100.676 181.214 7.32 23.795 40.271 151.929 40.271 151.929 20.134-36.607 76.879-69.557 137.283-69.557 181.214 0 302.025 161.079 302.025 378.903 0 164.743-140.947 316.667-355.11 316.667-267.246-1.831-402.699-188.535-402.699-345.956z"/><glyph unicode="" glyph-name="tag" d="M303.497 592.57c15.238 15.227 23.151 34.11 23.151 55.428s-7.914 39.601-23.151 54.827c-15.227 15.227-33.499 23.14-54.816 23.14s-40.201-7.914-55.428-23.14c-15.227-15.227-22.54-33.51-22.54-54.827s7.313-40.201 22.54-55.428c15.227-15.227 34.11-22.54 55.428-22.54s39.59 7.314 54.816 22.54zm673.067-295.421c0-21.318-7.301-39.59-22.528-54.816L654.958-57.346c-15.84-15.227-34.11-22.54-55.429-22.54-21.316 0-39.59 7.313-54.815 22.54l-435.52 436.119C93.967 394 80.563 414.106 69.604 440.291c-10.359 26.197-15.838 49.948-15.838 71.266v253.398c0 21.318 7.914 39.59 23.151 54.816 15.227 15.227 33.499 23.14 54.816 23.14H385.12c21.318 0 45.08-5.479 71.266-16.438 26.197-10.359 46.903-23.763 62.131-38.989l435.519-434.897c15.227-15.838 22.528-34.11 22.528-55.439z"/><glyph unicode="" glyph-name="folder-open" d="M859.2 110.336c0-30.822-24.986-55.808-55.808-55.808h-697.6l97.728 460.416v.128c0 30.751 24.929 55.68 55.68 55.68h641.92c30.72 0 55.68-24.96 55.68-55.808l-97.6-404.608M217.408 612.608h627.84v54.784c0 30.822-24.986 55.808-55.808 55.808H454.656v50.56c0 30.784-24.96 55.808-55.808 55.808h-279.04C88.986 829.568 64 804.582 64 773.76V110.336l97.6 446.4c0 30.848 24.96 55.872 55.808 55.872"/><glyph unicode="" glyph-name="more" d="M512 461.672c-42.962 0-77.672-34.71-77.672-77.672s34.71-77.672 77.672-77.672c42.962 0 77.672 34.71 77.672 77.672s-34.71 77.672-77.672 77.672zm-309.718 0c-42.962 0-77.672-34.71-77.672-77.672s34.71-77.672 77.672-77.672c42.962 0 77.672 34.71 77.672 77.672s-34.953 77.672-77.672 77.672zm620.407 0c-42.962 0-77.672-34.71-77.672-77.672s34.71-77.672 77.672-77.672 77.672 34.71 77.672 77.672-34.71 77.672-77.672 77.672z"/><glyph unicode="" glyph-name="tags" d="M782.219 342.857L392.71 732.368c-5.09 5.089-12.121 8.237-19.887 8.237H94.399c-15.532 0-28.125-12.593-28.125-28.125V434.058a28.127 28.127 0 0 1 8.237-19.888L464.022 24.659c21.876-21.876 57.673-21.876 79.549 0l238.648 238.648c21.876 21.877 21.876 57.675 0 79.551zm-517.07 198.874c-21.967-21.967-57.583-21.967-79.549 0-21.967 21.967-21.967 57.583 0 79.549s57.583 21.967 79.549 0c21.966-21.966 21.966-57.581 0-79.549zm676.17-198.874L551.808 732.368c-5.09 5.089-12.121 8.237-19.887 8.237H464.02l397.748-397.747c21.876-21.876 21.876-57.673 0-79.549L623.12 24.659c21.876-21.876 57.673-21.876 79.549 0l238.65 238.65c21.876 21.876 21.876 57.673 0 79.549z"/><glyph unicode="" glyph-name="zhihu" d="M341.111 330.166h205.808c0 48.392-22.813 76.735-22.813 76.735H345.491c4.243 87.662 8.045 200.17 9.405 241.958h169.902s-.921 71.896-19.817 71.896H206.336s17.974 94.018 41.94 135.524c0 0-89.179 4.811-119.596-114.093S52.636 551.385 47.797 538.251c-4.839-13.134 26.27-6.222 39.404 0s72.588 27.653 89.87 110.609h92.342c1.243-52.572 4.903-213.691 3.749-241.958H83.053c-26.961-19.357-35.948-76.735-35.948-76.735h217.289c-9.064-60.006-24.978-137.348-47.227-178.358C181.911 86.826 163.244 27.374 36.045-74.939c0 0-20.739-15.208 43.552-9.679 64.292 5.531 125.126 22.122 167.296 106.461 21.923 43.848 44.592 99.468 62.279 155.881l-.059-.198L488.159-28.622s23.505 55.304 6.222 116.14L361.65 236.149l-44.933-33.235-.048-.162c12.479 43.755 21.453 87.013 24.242 124.649.067.906.134 1.83.201 2.765zM589.78 735.964V22.535h75.006l30.728-85.88 130.001 85.88h163.84v713.429H589.78zM912.16 99.27H827L720.782 29.102 695.676 99.27h-26.512v557.078h242.995V99.27z"/><glyph unicode="" glyph-name="profile" d="M342.48 609.444c-18.059 0-32.622 14.564-32.622 32.622s14.564 32.622 32.622 32.622h200.977c18.059 0 32.622-14.564 32.622-32.622s-14.564-32.622-32.622-32.622H342.48zm336.127-134.567c0-18.059-12.233-32.04-27.962-32.04H223.059c-15.146 0-27.962 14.564-27.962 32.04s12.233 32.04 27.962 32.04h427.586c15.729 0 27.962-13.981 27.962-32.04zm0-165.442c0-18.059-12.233-32.04-27.962-32.04H223.059c-15.146 0-27.962 14.564-27.962 32.04 0 18.059 12.233 32.04 27.962 32.04h427.586c15.729 0 27.962-14.564 27.962-32.04zm0-165.442c0-18.059-12.233-32.622-27.962-32.622H223.059c-15.146 0-27.962 14.564-27.962 32.622s12.233 32.04 27.962 32.04h427.586c15.729 0 27.962-14.564 27.962-32.04zM900.556-90.189H124.027c-43.108 0-77.478 34.953-77.478 77.478V764.4c0 42.526 34.953 77.478 77.478 77.478h666.428c28.545 0 51.846-23.302 51.846-51.846v-687.4c0-14.564 0-48.351-34.37-49.516-36.118-1.165-36.7 34.953-36.7 49.516v639.631c0 18.641-15.146 34.37-34.37 34.37H143.25c-18.641 0-34.37-15.146-34.37-34.37V9.425c0-18.641 15.146-34.37 34.37-34.37h717.692c28.545 0 51.846 23.302 51.846 51.846v569.144c0 14.564-2.913 46.603 30.875 47.768 35.535 1.165 34.953-33.205 34.953-47.186V-12.712c-.583-43.108-35.535-77.478-78.061-77.478z"/><glyph unicode="" glyph-name="facebook" d="M767.429 889.143V738.286h-89.714q-49.143 0-66.286-20.571t-17.143-61.714v-108h167.429l-22.286-169.143H594.286V-54.856H419.429v433.714H273.715v169.143h145.714v124.571q0 106.286 59.429 164.857T637.144 896q84 0 130.286-6.857z"/><glyph unicode="" glyph-name="hezuo" d="M510.317-32.841c-2.46 0-5.049 0-7.508.129-65.115 2.201-125.182 32.493-169.067 85.44L81.178 356.944C-7.498 463.743-2.449 632.033 92.57 731.972c46.474 48.934 107.706 74.695 172.174 72.624 65.115-2.201 125.182-32.493 169.067-85.44L686.375 414.94c88.676-106.799 83.627-275.089-11.392-375.028-44.662-47.121-102.916-72.753-164.665-72.753zM257.235 752.814c-47.38 0-92.43-19.936-127.253-56.571-77.543-81.556-81.556-218.906-9.062-306.288L373.484 85.739c34.305-41.296 80.779-64.986 131.007-66.669 49.451-1.683 96.702 18.382 132.949 56.442 77.543 81.556 81.556 218.906 9.062 306.288L393.938 686.016c-34.305 41.296-80.779 64.986-131.007 66.669-1.942.129-3.754.129-5.696.129zM512-34.265c-61.749 0-120.004 25.632-164.665 72.753l37.542 35.729c36.247-38.059 83.368-58.125 132.949-56.442 50.099 1.683 96.702 25.373 131.007 66.669L901.397 388.66c72.494 87.381 68.481 224.732-9.062 306.288-36.247 38.059-83.368 58.125-132.949 56.442-50.099-1.683-96.702-25.373-131.007-66.669l-96.443-116.12-39.872 32.881 96.443 116.12c43.885 52.817 103.951 83.239 169.067 85.44 64.468 2.201 125.7-23.561 172.174-72.624 95.019-99.938 100.068-268.228 11.392-375.028L688.576 51.174c-43.885-52.817-103.951-83.239-169.067-85.44h-7.508z"/><glyph unicode="" glyph-name="gg" d="M368 432l192-192L368 48 32 384l336 336 84-84-48-48-36 36-240-240 240-240 96.563 96.563L320 384.001l48 48zm288 288L464 528l192-192 48 48-144.563 143.438L656 624.001l240-240-240-240-36 36-48-48 84-84 336 336-336 336z"/><glyph unicode="" glyph-name="github" d="M884.9 515.2c0 58.7-19.5 112.9-57.8 156.5 22.6 70.7-3.1 130.4-6.5 139.6-63.8 5.8-130-41.7-143.4-51.8-39.3 10.6-84 16.4-134.2 16.4-49.8 0-94.4-5.7-133.5-16.2-5.6 4.4-76.9 59.7-145.6 53.5-3.5-9.1-29.8-70.2-5.8-141.9-37.8-43.6-57.1-97.5-57.1-155.9 0-120.7 69.4-222.2 235.5-251.8l-.8-.8h1.2c-21.6-16.3-36.2-39.4-43.1-70.3-24.9-5.8-38.9-14.6-65.7-13.6-87.7 3.1-91.4 127-189 103.5 7.5-26.7 33.2-29.3 49.3-49 16.2-19.7 19.5-45.9 32.9-68.1 29.9-49.5 91.1-67.5 169.9-51.8-5.4-47.3 9.6-93.4-5.5-125.4-10.8-23-36.2-19-41.1-43.6 37.2-14.8 86.2-.4 101.4 32.7 26.4 57.5-20.7 169.6 21.9 201.7-9.3-70.3 14.8-157.1-5.5-215.4-6.9-19.9-25.2-27.3-21.9-49 111.6-13.9 89.9 128.1 90.4 231.7.1 11.8-8.5 39.5 11 40.9 21-106-32.7-285.6 95.9-272.6 5.6 20.4-14.8 29.2-21.9 51.8-18 57.6-.1 148.1-2.7 212.6 36.8-40.1 3-131.7 16.4-190.8 7.8-34.5 76.4-70.9 104.1-38.2-11.3 17.4-28.1 17.9-38.4 38.2-21.5 42.4.3 135.4-8.2 199-5.4 40.7-27 51.7-39.5 75.8h1.4l-.5.5c166.7 29.2 236.4 130.9 236.4 251.8z"/><glyph unicode="" glyph-name="github-fill" d="M45.295 380.97c0-203.299 130.276-376.149 311.877-439.6 24.432-6.199 20.694 11.304 20.694 23.156v80.681C236.65 28.615 230.998 122.15 221.426 137.74c-19.236 32.728-64.454 41.024-50.962 56.614 32.182 16.592 64.91-4.193 102.926-60.261 27.532-40.659 80.955-33.822 108.214-26.985 5.926 24.432 18.689 46.221 36.101 63.269-146.138 25.982-207.219 115.325-207.219 221.532 0 51.417 16.957 98.824 50.323 137.022-21.15 63.086 2.005 116.874 5.106 124.897 60.442 5.47 123.165-43.212 128.088-47.042 34.37 9.208 73.57 14.222 117.421 14.222 44.124 0 83.508-5.106 118.059-14.404 11.76 8.934 70.015 50.688 126.173 45.583 3.008-8.022 25.617-60.625 5.743-122.8 33.731-38.289 50.871-85.969 50.871-137.66 0-106.39-61.355-195.824-208.04-221.623 24.523-24.158 39.657-57.708 39.657-94.812V-41.764c.82-9.299 0-18.689 15.681-18.689C843.814 1.631 976.46 175.757 976.46 380.88c0 257.178-208.495 465.582-465.582 465.582-257.18.09-465.584-208.314-465.584-465.492z"/><glyph unicode="" glyph-name="linkedin" horiz-adv-x="1025" d="M242.091 538.843V-27.429H53.529v566.272h188.562zm11.995 174.885q.585-41.728-28.855-69.705t-77.422-28.014h-1.134q-46.848 0-75.447 28.014t-28.562 69.705q0 42.277 29.44 69.998t76.873 27.721 75.995-27.721 29.147-69.998zm666.295-416.585V-27.428H732.367V275.42q0 60.014-23.15 93.989t-72.302 34.011q-35.986 0-60.27-19.712t-36.279-48.859q-6.29-17.152-6.29-46.299V-27.464H346.062q1.134 227.986 1.134 369.701t-.585 169.143l-.585 27.429H534.04v-82.286h-1.134q11.447 18.286 23.442 32t32.293 29.696 49.701 24.869 65.426 8.85q97.719 0 157.147-64.841t59.429-189.989z"/><glyph unicode="" glyph-name="code" horiz-adv-x="1045" d="M338.429 114.536L311.643 87.75q-5.357-5.357-12.321-5.357t-12.321 5.357L37.358 337.393q-5.357 5.357-5.357 12.321t5.357 12.321l249.643 249.643q5.357 5.357 12.321 5.357t12.321-5.357l26.786-26.786q5.357-5.357 5.357-12.321t-5.357-12.321L127.893 349.714l210.536-210.536q5.357-5.357 5.357-12.321t-5.357-12.321zm316.607 571.607L455.215-5.464q-2.143-6.964-8.304-10.446t-12.589-1.339l-33.214 9.107q-6.964 2.143-10.446 8.304t-1.339 13.125l199.821 691.607q2.143 6.964 8.304 10.446t12.589 1.339l33.214-9.107q6.964-2.143 10.446-8.304t1.339-13.125zM1007 337.393L757.357 87.75q-5.357-5.357-12.321-5.357t-12.321 5.357l-26.786 26.786q-5.357 5.357-5.357 12.321t5.357 12.321l210.536 210.536L705.929 560.25q-5.357 5.357-5.357 12.321t5.357 12.321l26.786 26.786q5.357 5.357 12.321 5.357t12.321-5.357L1007 362.035q5.357-5.357 5.357-12.321T1007 337.393z"/><glyph unicode="" glyph-name="book" d="M964.222 723.173c-1.693.243-17.435 2.425-45.499 2.425-52.449 0-145.112-7.845-264.071-48.78 122.197 69.209 247.313 75.476 249.02 75.548 10.611.429 18.853 9.389 18.438 19.979-.452 10.628-9.464 18.98-19.981 18.435-7.957-.322-155.849-7.451-292.695-95.937 103.475 96.598 254.832 125.864 256.828 126.243 10.415 1.938 17.299 11.966 15.401 22.386-1.922 10.424-11.945 17.365-22.36 15.429-11.031-2.041-253.651-48.745-347.432-227.788-93.983 178.632-336.097 225.295-347.121 227.333-10.387 1.894-20.431-5.005-22.369-15.427-1.938-10.459 4.984-20.468 15.426-22.388 2.01-.373 153.612-29.536 257.11-126.465-136.944 88.676-285.08 95.84-293.042 96.141-10.515.639-19.543-7.824-19.977-18.433-.415-10.611 7.824-19.566 18.433-19.977 1.733-.077 126.978-6.152 249.379-75.66-119.128 41.047-211.905 48.906-264.41 48.906-28.064 0-43.829-2.201-45.52-2.444-14.974-2.183-25.715-15.613-24.587-30.701L83.066 53.322c1.11-14.632 13.055-26.124 27.724-26.646C347.981 18.169 493.075-89.089 494.504-90.143a28.81 28.81 0 0 1 17.399-5.854c4.363 0 8.752.993 12.814 3.008 2.537 1.241 4.799 2.873 6.791 4.72C549.432-75.512 689.806 19.142 913.223 27.123c14.669.522 26.614 12.02 27.724 26.656l47.859 638.695c1.115 15.101-9.613 28.493-24.585 30.7zM483.05-14.925c-61.021 34.202-180.058 87.309-344.374 97.938L94.863 667.342c3.216.075 6.676.131 10.437.131 66.404 0 202.301-13.454 377.749-101.618v-580.78h.001zm402.297 98.404C721.033 72.868 601.994 19.748 540.959-14.469v580.792c175.442 88.172 311.361 101.578 377.76 101.578 3.727 0 7.211-.035 10.424-.115L885.346 83.478z"/><glyph unicode="" glyph-name="anchor" d="M512 881.103c-91.011 0-165.701-74.69-165.701-165.701 0-76.761 53.024-140.721 124.276-159.239V466.85H346.299V384h124.276V53.882c-100.498 7.995-167.358 44.739-214.914 86.744-36.206 32.063-60.481 67.233-77.631 97.101l65.99 32.353-165.701 75.104-43.952-178.667 68.6 33.679c26.296-47.135 58.644-87.326 96.656-121.316l.445-.391c60.274-53.314 149.048-97.598 270.548-106.173v-2.568l41.425-41.425 41.425 41.425v2.61c121.5 8.534 210.274 52.817 270.548 106.131 38.457 34.381 70.805 74.572 95.901 119.376l1.2 2.332 68.6-33.679-43.994 178.667-165.701-75.104 65.99-32.353c-17.191-29.826-41.425-65.038-77.672-97.101-47.473-42.047-114.334-78.749-214.873-86.744v330.118h124.276v82.85H553.465v89.313c71.251 18.517 124.276 82.436 124.276 159.239 0 91.011-74.69 165.701-165.701 165.701zm0-82.851c46.231 0 82.85-36.62 82.85-82.85s-36.62-82.85-82.85-82.85-82.85 36.62-82.85 82.85 36.62 82.85 82.85 82.85z"/><glyph unicode="" glyph-name="angle-down" d="M109.875 562.142l-49.118-49.118L487.424 86.357l24.542-23.45 24.542 23.45 426.667 426.667-49.084 49.084L512 160.017 109.875 562.074z"/><glyph unicode="" glyph-name="angle-left" d="M615.458 784.009L239.991 408.542 216.541 384l23.45-24.542L615.458-16.009l49.084 49.084L313.583 384l350.993 350.925-49.152 49.118z"/><glyph unicode="" glyph-name="angle-up" d="M512 705.058l-24.542-23.45L60.791 254.941l49.118-49.118L512 608.016l402.125-402.193 49.084 49.084-426.667 426.667L512 705.058z"/><glyph unicode="" glyph-name="angle-right" d="M408.542 784.009l-49.118-49.118L710.383 384 359.492 33.075l49.05-49.084 375.467 375.467L807.459 384l-23.45 24.542-375.467 375.467z"/><glyph unicode="" glyph-name="calendar" d="M222.023 881.103v-41.425H56.322V-71.677h911.355v911.355H801.976v41.425h-82.85v-41.425H304.874v41.425h-82.85zm-82.85-124.276h82.85v-41.425h82.85v41.425h414.252v-41.425h82.85v41.425h82.85v-82.85H139.171v82.85zm0-165.701h745.654V11.173H139.173v579.953zm248.551-82.85v-82.85h82.85v82.85h-82.85zm165.701 0v-82.85h82.85v82.85h-82.85zm165.701 0v-82.85h82.85v82.85h-82.85zM222.023 342.575v-82.85h82.85v82.85h-82.85zm165.701 0v-82.85h82.85v82.85h-82.85zm165.701 0v-82.85h82.85v82.85h-82.85zm165.701 0v-82.85h82.85v82.85h-82.85zM222.023 176.874v-82.85h82.85v82.85h-82.85zm165.701 0v-82.85h82.85v82.85h-82.85zm165.701 0v-82.85h82.85v82.85h-82.85z"/><glyph unicode="" glyph-name="calendar-check" d="M222.023 839.677v-41.425H56.322v-911.355h911.355v911.355H801.976v41.425h-82.85v-41.425H304.874v41.425h-82.85zm-82.85-124.275h82.85v-41.425h82.85v41.425h414.252v-41.425h82.85v41.425h82.85v-82.85H139.171v82.85zm0-165.701h745.654V-30.252H139.173v579.953zm550.168-94.491L470.574 236.443l-94.491 94.45-59.569-59.528L440.79 147.089l29.785-28.459 29.785 28.459L748.911 395.64l-59.569 59.569z"/><glyph unicode="" glyph-name="calendar-minus" d="M222.023 839.677v-41.425H56.322v-911.355h911.355v911.355H801.976v41.425h-82.85v-41.425H304.874v41.425h-82.85zm-82.85-124.275h82.85v-41.425h82.85v41.425h414.252v-41.425h82.85v41.425h82.85v-82.85H139.171v82.85zm0-165.701h745.654V-30.252H139.173v579.953zM304.874 301.15V218.3h414.252v82.85H304.874z"/><glyph unicode="" glyph-name="calendar-plus" d="M222.023 839.677v-41.425H56.322v-911.355h911.355v911.355H801.976v41.425h-82.85v-41.425H304.874v41.425h-82.85zm-82.85-124.275h82.85v-41.425h82.85v41.425h414.252v-41.425h82.85v41.425h82.85v-82.85H139.171v82.85zm0-165.701h745.654V-30.252H139.173v579.953zm331.402-82.851V301.149H304.874v-82.85h165.701V52.598h82.85v165.701h165.701v82.85H553.425V466.85h-82.85z"/><glyph unicode="" glyph-name="calendar-times" d="M222.023 839.677v-41.425H56.322v-911.355h911.355v911.355H801.976v41.425h-82.85v-41.425H304.874v41.425h-82.85zm-82.85-124.275h82.85v-41.425h82.85v41.425h414.252v-41.425h82.85v41.425h82.85v-82.85H139.171v82.85zm0-165.701h745.654V-30.252H139.173v579.953zm257.623-115.204l-59.611-59.611L452.43 259.724 337.268 144.52l59.528-59.569L512 200.196 627.204 84.951l59.569 59.569-115.245 115.204 115.245 115.204-59.569 59.569L512 319.293 396.796 434.455z"/><glyph unicode="" glyph-name="youdao-note" d="M577.944 884.694c20.753 6.06 42.883-3.021 57.434-18.019C752.713 749.251 869.833 631.63 987.079 514.116c12.835-12.066 22.416-28.797 21.844-46.852-.34-16.91-9.706-32.158-21.433-43.741C840.714 276.515 693.885 129.596 547.18-17.466c-15.033-18.662-37.449-29.334-60.938-32.408-124.574-9.349-249.131-19.341-373.705-28.797-20.396-.25-44.313.59-59.239 16.535C40.696-46.781 40.177-25.473 40.303-6.525 49.42 111.489 59.197 229.468 68.135 347.5c.572 28.1 14.05 55.2 35.394 73.343 143.558 143.648 286.67 287.742 430.299 431.3 12.781 13.049 25.759 27.689 44.117 32.551z"/><glyph unicode="" glyph-name="stackexchange" d="M886.841 210.513v-40.242q0-51.813-35.054-88.061t-84.409-36.283h-34.747L574.155-118.044V45.927H251.742q-49.355 0-84.409 36.283t-35.054 88.061v40.242h754.562zm0 198.684V253.759H132.279v155.438h754.562zm0 199.946V453.705H132.279v155.438h754.562zm0 85.331v-40.822H132.279v40.822q0 51.198 35.054 87.481t84.409 36.283h515.636q49.355 0 84.409-36.283t35.054-87.481z"/><glyph unicode="" glyph-name="close" d="M192.294 756.062l-52.392-52.392L459.681 384 139.902 64.294l52.429-52.392 319.67 319.779L831.707 11.938l52.356 52.356L564.32 384l319.743 319.706-52.392 52.392-319.67-319.779-319.706 319.779z"/><glyph unicode="" glyph-name="delicious" d="M246.879 870.056c-121.514 0-220.935-99.421-220.935-220.935V118.878c0-121.514 99.421-220.935 220.935-220.935h530.243c121.514 0 220.935 99.421 220.935 220.935v530.243c0 121.514-99.421 220.935-220.935 220.935H246.879zm0-88.374H512V384h397.682V118.879c0-73.704-58.857-132.561-132.561-132.561H512V384H114.318v265.121c0 73.704 58.857 132.561 132.561 132.561z"/><glyph unicode="" glyph-name="telegram" d="M679.429 149.143l84 396q5.143 25.143-6 36t-29.429 4L234.286 394.857q-16.571-6.286-22.571-14.286t-1.429-15.143 18.286-11.143l126.286-39.429 293.143 184.571q12 8 18.286 3.429 4-2.857-2.286-8.571L426.858 279.999l-9.143-130.286q13.143 0 25.714 12.571l61.714 59.429 128-94.286q36.571-20.571 46.286 21.714zM1024 384q0-104-40.571-198.857T874.286 21.714 710.857-87.429 512-128 313.143-87.429 149.714 21.714 40.571 185.143 0 384t40.571 198.857 109.143 163.429 163.429 109.143T512 896t198.857-40.571 163.429-109.143 109.143-163.429T1024 384z"/><glyph unicode="" glyph-name="about" d="M512-128C229.376-128 0 101.376 0 384s229.376 512 512 512 512-229.376 512-512-229.376-512-512-512zm0 949.248C271.36 821.248 75.776 624.64 75.776 384S271.36-53.248 512-53.248 949.248 143.36 949.248 384 752.64 821.248 512 821.248zm0-753.664c-24.797.215-44.841 20.259-45.056 45.036v338.964c0 25.6 20.48 45.056 45.056 45.056s45.056-19.456 45.056-45.056V112.64c-.215-24.797-20.259-44.841-45.036-45.056H512zm0 474.112c-24.576 0-45.056 20.48-45.056 46.08v67.584c0 24.576 20.48 45.056 45.056 45.056s45.056-20.48 45.056-45.056v-67.584c0-25.6-20.48-46.08-45.056-46.08z"/><glyph unicode="" glyph-name="camera" d="M304 288c0-114.876 93.124-208 208-208s208 93.124 208 208-93.124 208-208 208-208-93.124-208-208zm656 352H736c-16 64-32 128-96 128H384c-64 0-80-64-96-128H64c-35.2 0-64-28.8-64-64V0c0-35.2 28.8-64 64-64h896c35.2 0 64 28.8 64 64v576c0 35.2-28.8 64-64 64zM512 4C355.15 4 228 131.148 228 288c0 156.85 127.15 284 284 284 156.852 0 284-127.15 284-284C796 131.148 668.854 4 512 4zm448 444H832v64h128v-64z"/><glyph unicode="" glyph-name="play" d="M981.188 735.892C837.556 756.542 678.856 768 512.002 768c-166.86 0-325.556-11.458-469.194-32.108C15.278 628.166 0 509.142 0 384 0 258.86 15.278 139.834 42.808 32.11 186.446 11.458 345.144 0 512.002 0c166.854 0 325.552 11.458 469.186 32.11C1008.72 139.834 1024 258.86 1024 384c0 125.142-15.28 244.166-42.812 351.892zM384.002 192v384l320-192-320-192z"/><glyph unicode="" glyph-name="alipay" horiz-adv-x="1247" d="M729.143 265.905s26.667 49.524 57.143 140.952c30.476 95.238 34.286 144.762 34.286 144.762l-240 3.81v91.429l289.524 3.81v64.762H580.572v148.571H439.62V715.43H169.144v-64.762l270.476 3.81V555.43H222.477v-53.333h449.524s-3.81-41.905-22.857-95.238-34.286-99.048-34.286-99.048-209.524 83.81-320 83.81S47.239 342.097 35.81 197.335 96.762-27.427 207.239-54.094s205.714 0 289.524 49.524c87.619 45.714 171.429 156.19 171.429 156.19l445.714-243.81s26.667 45.714 49.524 91.429 38.095 95.238 38.095 95.238L729.144 265.906zM268.19 22.095c-156.19 0-190.476 87.619-190.476 148.571S112 300.19 245.333 311.618c133.333 11.429 316.19-106.667 316.19-106.667S428.19 22.094 268.19 22.094z"/><glyph unicode="" glyph-name="dribble" d="M990.933 363.328c-100.757 31.829-218.357 35.52-335.541 9.856-22.333 54.909-43.26 98.927-66.236 141.679l3.858-7.855c114.944 42.592 212.939 105.888 275.008 197.92 76.779-85.184 123.979-197.504 123.979-320.864 0-7.072-.725-13.888-1.067-20.736zM836.768 736.32c-57.024-89.44-152.32-150.304-264.832-191.072-63.579 110.768-135.538 206.462-217.726 292.28l.51-.536C404.096 854.176 456.8 864 512 864c125.312 0 239.232-48.672 324.768-127.68zm-528.224 81.792C392.32 733.088 465.312 635.2 525.312 529.728c-153.024-46.432-330.336-60.672-485.376-61.12C67.68 623.712 169.984 752.864 308.544 818.112zM32 384c0 13.824.896 27.392 2.048 40.928 162.656.096 350.112 15.232 512.288 66.048 18.644-33.79 39.137-76.486 57.548-120.272l3.572-9.574C443.104 313.439 285.28 206.442 182.624 35.679 90.08 123.327 32 246.879 32 383.999zM215.936 6.88C313.248 172.843 465.44 276 623.136 320.896c46.176-122.688 75.36-249.92 84.352-374.88C647.691-80.725 581.621-96 512-96 400.256-96 297.6-57.344 215.936 6.88zm535.2-38.432c-8.672 122.965-36.128 245.888-79.904 364.064 110.016 23.008 220.192 18.368 313.92-12.864.672-.245 1.312-.064 2.016-.245C966.752 169.312 877.067 41.184 751.136-31.552z"/><glyph unicode="" glyph-name="equalizer2" d="M896 448h16c26.4 0 48 21.6 48 48v160c0 26.4-21.6 48-48 48h-16v192H768V704h-16c-26.4 0-48-21.6-48-48V496c0-26.4 21.6-48 48-48h16v-576h128v576zM768 640h128V512H768v128zM592 64c26.4 0 48 21.6 48 48v160c0 26.4-21.6 48-48 48h-16v576H448V320h-16c-26.4 0-48-21.6-48-48V112c0-26.4 21.6-48 48-48h16v-192h128V64h16zM448 256h128V128H448v128zM272 448c26.4 0 48 21.6 48 48v160c0 26.4-21.6 48-48 48h-16v192H128V704h-16c-26.4 0-48-21.6-48-48V496c0-26.4 21.6-48 48-48h16v-576h128v576h16zM128 640h128V512H128v128z"/><glyph unicode="" glyph-name="cog" d="M933.79 285.75c-53.726 93.054-21.416 212.304 72.152 266.488L905.316 726.53c-28.75-16.854-62.176-26.518-97.846-26.518-107.536 0-194.708 87.746-194.708 195.99H411.504c.266-33.41-8.074-67.282-25.958-98.252-53.724-93.056-173.156-124.702-266.862-70.758L18.06 552.7c28.97-16.472 54.05-40.588 71.886-71.478 53.638-92.908 21.512-211.92-71.708-266.224L118.864 40.706c28.65 16.696 61.916 26.254 97.4 26.254 107.196 0 194.144-87.192 194.7-194.958h201.254c-.086 33.074 8.272 66.57 25.966 97.218C691.82 62.126 810.96 93.814 904.598 40.232l100.626 174.29c-28.78 16.466-53.692 40.498-71.434 71.228zM512 176.668c-114.508 0-207.336 92.824-207.336 207.334 0 114.508 92.826 207.334 207.336 207.334 114.508 0 207.332-92.826 207.332-207.334-.002-114.51-92.824-207.334-207.332-207.334z"/><glyph unicode="" glyph-name="plus" d="M475.591 784.498V420.409H111.502v-72.818h364.089V-16.498h72.818v364.089h364.089v72.818H548.409v364.089h-72.818z"/><glyph unicode="" glyph-name="heart" d="M755.188 832c-107.63 0-200.258-87.554-243.164-179-42.938 91.444-135.578 179-243.216 179C120.426 832 0 711.56 0 563.168 0 261.322 304.5 182.174 512.022-116.25 708.176 180.326 1024 270.956 1024 563.168 1024 711.56 903.57 832 755.188 832z"/></font>
</defs>
</svg>
